<svg width="84" height="84" viewBox="0 0 84 84" fill="none" xmlns="http://www.w3.org/2000/svg">
<path d="M9.65429 82.5676C4.20626 76.9466 1.03654 69.5047 0.758284 61.6817C0.480028 53.8587 3.11302 46.2105 8.14791 40.2166C13.1828 34.2227 20.2618 30.3091 28.0154 29.2329C35.769 28.1567 43.6463 29.9943 50.1233 34.3904L56.9062 40.6095C58.4615 42.5178 59.7887 44.6013 60.8607 46.8176L58.4984 78.3945C57.4834 79.8795 56.344 81.2756 55.0925 82.5676H9.65429Z" fill="#97144D"/>
<path d="M60.8617 46.8182C59.7898 44.6019 58.4626 42.5184 56.9072 40.6101L50.1243 34.3896L50.0047 34.3084C46.0083 31.6437 41.3125 30.2217 36.5091 30.2217C31.7057 30.2217 27.0099 31.6437 23.0135 34.3084C19.1698 36.8864 15.9388 40.2765 13.5484 44.2395C11.1581 48.2026 9.66674 52.642 9.17959 57.2444C8.69244 61.8468 9.22139 66.5 10.7291 70.8757C12.2368 75.2513 14.6865 79.2427 17.9053 82.5682H55.0936C56.3451 81.2762 57.4845 79.8801 58.4995 78.3951L60.8617 46.8182Z" fill="#FBDFEB"/>
<path d="M59.1488 43.7397C58.4653 42.6521 57.7163 41.607 56.9061 40.6101L53.8715 37.8271C52.4108 38.8246 50.8269 39.6284 49.1594 40.2183L43.1479 42.267C42.8098 42.3853 42.5171 42.6064 42.311 42.8993C42.1048 43.1922 41.9955 43.5423 41.9984 43.9005V53.3468C41.9922 53.6483 42.0673 53.9458 42.2158 54.2083C42.3643 54.4708 42.5806 54.6885 42.8422 54.8385C43.1038 54.9886 43.4009 55.0655 43.7024 55.0611C44.0039 55.0568 44.2987 54.9714 44.5559 54.8139L50.5963 51.0381C53.7788 49.0232 56.6585 46.5658 59.1488 43.7397Z" fill="#97144D"/>
<path d="M39.248 23.4424H25.498C23.9793 23.4424 22.748 24.6736 22.748 26.1924C22.748 27.7112 23.9793 28.9424 25.498 28.9424H39.248C40.7668 28.9424 41.998 27.7112 41.998 26.1924C41.998 24.6736 40.7668 23.4424 39.248 23.4424Z" fill="#E74B8F"/>
<path d="M32.373 72.9424C41.4857 72.9424 48.873 65.5551 48.873 56.4424C48.873 47.3297 41.4857 39.9424 32.373 39.9424C23.2603 39.9424 15.873 47.3297 15.873 56.4424C15.873 65.5551 23.2603 72.9424 32.373 72.9424Z" fill="#F7C4DA"/>
<path d="M32.374 39.9424C29.1753 39.9399 26.0457 40.8728 23.3705 42.6264C21.296 45.7955 20.3759 49.5823 20.765 53.3501C21.154 57.1178 22.8285 60.6367 25.5069 63.315C28.1852 65.9934 31.7041 67.6679 35.4718 68.0569C39.2396 68.446 43.0264 67.5259 46.1955 65.4514C47.8224 62.9626 48.746 60.0801 48.8685 57.1093C48.991 54.1384 48.3079 51.1897 46.8914 48.5754C45.4749 45.9611 43.3778 43.7785 40.8221 42.2588C38.2665 40.739 35.3474 39.9386 32.374 39.9424Z" fill="#FBDFEB"/>
<path d="M25.4976 23.4424L21.6751 16.5674C20.7332 14.2821 22.0174 11.0674 24.1226 11.0674H40.6226C42.7277 11.0674 44.0119 14.2821 43.0701 16.5674L39.2476 23.4424H25.4976Z" fill="#E74B8F"/>
<path d="M83.25 81.1924H0.75V83.9424H83.25V81.1924Z" fill="#97144D"/>
<path d="M54.373 56.4424H48.873V78.4424H54.373V56.4424Z" fill="#D41C6C"/>
<path d="M63.998 46.8174H58.498V78.4424H63.998V46.8174Z" fill="#D41C6C"/>
<path d="M73.623 37.1924H68.123V78.4424H73.623V37.1924Z" fill="#D41C6C"/>
<path d="M48.3617 52.434C47.4327 48.7283 45.2456 45.4603 42.1742 43.1885C42.0662 43.4107 42.0076 43.6537 42.0023 43.9007V53.347C41.9962 53.6485 42.0712 53.946 42.2197 54.2085C42.3682 54.471 42.5846 54.6887 42.8461 54.8387C43.1077 54.9888 43.4048 55.0657 43.7063 55.0613C44.0079 55.057 44.3027 54.9716 44.5598 54.8141L48.3617 52.434Z" fill="#F7C4DA"/>
<path d="M83.248 28.9424H77.748V78.4424H83.248V28.9424Z" fill="#D41C6C"/>
<path d="M44.748 61.9424H39.248V78.4424H44.748V61.9424Z" fill="#D41C6C"/>
<path d="M25.4975 23.4424C25.0273 23.4452 24.5659 23.5698 24.1582 23.804C24.2456 24.4629 24.5687 25.0679 25.0677 25.5069C25.5667 25.946 26.2078 26.1895 26.8725 26.1924H40.6225C41.0926 26.1896 41.554 26.065 41.9617 25.8308C41.8743 25.1719 41.5512 24.5669 41.0522 24.1278C40.5532 23.6888 39.9121 23.4453 39.2475 23.4424H25.4975Z" fill="#FBDFEB"/>
<path d="M43.0703 16.5678C44.0122 14.2826 42.7279 11.0678 40.6228 11.0678H26.3737C26.0431 11.0611 25.7158 11.1344 25.4198 11.2817C25.1237 11.4289 24.8677 11.6455 24.6736 11.9132C24.4794 12.1808 24.353 12.4914 24.3049 12.8185C24.2569 13.1457 24.2888 13.4795 24.3978 13.7917L24.4088 13.8178L26.4452 17.4808C26.987 18.4552 27.7797 19.2669 28.741 19.8317C29.7023 20.3964 30.7972 20.6938 31.9122 20.6928H40.7768L43.0703 16.5678Z" fill="#FBDFEB"/>
<path d="M41.998 61.9424V74.3174C41.998 75.0467 42.2878 75.7462 42.8035 76.2619C43.3192 76.7777 44.0187 77.0674 44.748 77.0674V61.9424H41.998Z" fill="#FBDFEB"/>
<path d="M51.623 56.4424V74.3174C51.623 75.0467 51.9128 75.7462 52.4285 76.2619C52.9442 76.7777 53.6437 77.0674 54.373 77.0674V56.4424H51.623Z" fill="#FBDFEB"/>
<path d="M61.248 46.8174V74.3174C61.248 75.0467 61.5378 75.7462 62.0535 76.2619C62.5692 76.7777 63.2687 77.0674 63.998 77.0674V46.8174H61.248Z" fill="#FBDFEB"/>
<path d="M70.873 37.1924V74.3174C70.873 75.0467 71.1628 75.7462 71.6785 76.2619C72.1942 76.7777 72.8937 77.0674 73.623 77.0674V37.1924H70.873Z" fill="#FBDFEB"/>
<path d="M80.498 28.9424V74.3174C80.498 75.0467 80.7878 75.7462 81.3035 76.2619C81.8192 76.7777 82.5187 77.0674 83.248 77.0674V28.9424H80.498Z" fill="#FBDFEB"/>
<path d="M79.8178 16.9375C79.885 17.1733 79.888 17.4227 79.8265 17.66C79.765 17.8972 79.6411 18.1138 79.4678 18.2871C79.2945 18.4604 79.078 18.5843 78.8407 18.6458C78.6034 18.7073 78.354 18.7043 78.1183 18.637L70.8734 16.5677C67.4084 28.086 60.6516 39.2854 50.5963 45.5692L44.5559 49.3449C44.2987 49.5024 44.0039 49.5878 43.7024 49.5921C43.4009 49.5965 43.1038 49.5196 42.8422 49.3695C42.5806 49.2195 42.3643 49.0018 42.2158 48.7393C42.0673 48.4769 41.9922 48.1793 41.9984 47.8778V38.4302C41.9961 38.0724 42.1057 37.723 42.3118 37.4306C42.5179 37.1382 42.8102 36.9175 43.1479 36.7994L49.1594 34.7507C57.2031 32.0103 65.086 23.6957 66.7484 15.1927L60.6173 12.1278C60.4017 12.0201 60.2183 11.8576 60.0853 11.6567C59.9523 11.4557 59.8745 11.2234 59.8596 10.9829C59.8447 10.7424 59.8932 10.5022 60.0004 10.2864C60.1076 10.0705 60.2696 9.88667 60.4701 9.75317L73.4295 1.11267C73.6096 0.992649 73.8155 0.916831 74.0304 0.891379C74.2453 0.865927 74.4632 0.89156 74.6663 0.966193C74.8694 1.04083 75.0521 1.16235 75.1994 1.32089C75.3467 1.47942 75.4545 1.67049 75.514 1.87854L79.8178 16.9375Z" fill="#97144D"/>
<path d="M44.5559 45.7809L50.5962 42.0052C59.9366 36.1683 66.4307 26.0882 70.0855 15.4512C70.3166 14.7918 70.7917 14.2461 71.413 13.9264C72.0343 13.6066 72.7545 13.5372 73.4254 13.7324L78.1182 15.073C78.306 15.1273 78.5034 15.1402 78.6966 15.1108C78.8898 15.0813 79.0744 15.0103 79.2375 14.9025L75.514 1.87854C75.4545 1.67049 75.3466 1.47942 75.1993 1.32089C75.052 1.16235 74.8694 1.04083 74.6663 0.966193C74.4631 0.89156 74.2452 0.865927 74.0303 0.891379C73.8154 0.916831 73.6096 0.992649 73.4295 1.11267L60.4701 9.75317C60.2695 9.88667 60.1075 10.0705 60.0004 10.2864C59.8932 10.5022 59.8447 10.7424 59.8596 10.9829C59.8745 11.2234 59.9523 11.4557 60.0853 11.6567C60.2183 11.8576 60.4017 12.0201 60.6172 12.1278L66.7484 15.1927C65.086 23.6957 57.2031 32.0103 49.1594 34.752L43.1479 36.8008C42.8104 36.9188 42.5182 37.1393 42.3122 37.4314C42.1061 37.7235 41.9964 38.0727 41.9984 38.4302V44.3152C41.9925 44.6165 42.0678 44.914 42.2163 45.1762C42.3649 45.4385 42.5813 45.656 42.8428 45.8059C43.1043 45.9557 43.4014 46.0325 43.7028 46.0281C44.0041 46.0237 44.2988 45.9384 44.5559 45.7809Z" fill="#F7C4DA"/>
<path d="M31.8076 62.0267C31.565 62.0267 31.4032 61.9512 31.2414 61.8002L26.3885 57.2708C26.1459 57.0443 26.065 56.7424 26.2267 56.4404C26.3076 56.1384 26.6311 55.9875 26.9547 55.9875H29.3811C30.0282 55.9875 30.6753 55.761 31.0797 55.308C31.565 54.9306 31.8076 54.3267 31.8076 53.7228C31.8076 53.1188 31.565 52.5149 31.0797 52.1375C30.6753 51.6845 30.0282 51.458 29.3811 51.458H26.9547C26.4694 51.458 26.1459 51.1561 26.1459 50.7031C26.1459 50.2502 26.4694 49.9482 26.9547 49.9482H35.8517C36.337 49.9482 36.6606 50.2502 36.6606 50.7031C36.6606 51.1561 36.337 51.458 35.8517 51.458H32.6164C33.1017 52.1375 33.4253 52.8924 33.4253 53.7228C33.4253 54.7041 33.0209 55.6855 32.212 56.3649C31.4841 57.1198 30.4326 57.4973 29.3811 57.4973H28.8959L32.3738 60.7433C32.6973 61.0453 32.6973 61.4982 32.3738 61.8002C32.212 61.9512 32.0503 62.0267 31.8076 62.0267Z" fill="#97144D"/>
<path d="M35.8524 54.4776H26.9553C26.47 54.4776 26.1465 54.1756 26.1465 53.7227C26.1465 53.2697 26.47 52.9678 26.9553 52.9678H35.8524C36.3377 52.9678 36.6612 53.2697 36.6612 53.7227C36.6612 54.1756 36.3377 54.4776 35.8524 54.4776Z" fill="#97144D"/>
</svg>
