<svg width="88" height="89" viewBox="0 0 88 89" fill="none" xmlns="http://www.w3.org/2000/svg">
<g clip-path="url(#clip0_5857_133980)">
<path d="M5.5 14.0674H82.5C85.525 14.0674 88 16.5424 88 19.5674V69.0674C88 72.0924 85.525 74.5674 82.5 74.5674H5.5C2.475 74.5674 0 72.0924 0 69.0674V19.5674C0 16.5424 2.475 14.0674 5.5 14.0674Z" fill="#F7C4DA"/>
<path d="M0 22.3174H88V36.0674H0V22.3174Z" fill="#97144D"/>
<path d="M11 3.06738H44C48.5375 3.06738 52.25 6.77988 52.25 11.3174V77.3174C52.25 81.8549 48.5375 85.5674 44 85.5674H11C6.4625 85.5674 2.75 81.8549 2.75 77.3174V11.3174C2.75 6.77988 6.4625 3.06738 11 3.06738Z" fill="#FBDFEB"/>
<path d="M44 88.3174H11C4.95 88.3174 0 83.3674 0 77.3174V11.3174C0 5.26738 4.95 0.317383 11 0.317383H44C50.05 0.317383 55 5.26738 55 11.3174V77.3174C55 83.3674 50.05 88.3174 44 88.3174ZM11 5.81738C7.975 5.81738 5.5 8.29238 5.5 11.3174V77.3174C5.5 80.3424 7.975 82.8174 11 82.8174H44C47.025 82.8174 49.5 80.3424 49.5 77.3174V11.3174C49.5 8.29238 47.025 5.81738 44 5.81738H11Z" fill="#97144D"/>
<path d="M34.375 11.3174H20.625C17.6 11.3174 15.125 8.84238 15.125 5.81738H39.875C39.875 8.84238 37.4 11.3174 34.375 11.3174Z" fill="#D41C6C"/>
<path d="M27.5 60.8174C36.6127 60.8174 44 53.4301 44 44.3174C44 35.2047 36.6127 27.8174 27.5 27.8174C18.3873 27.8174 11 35.2047 11 44.3174C11 53.4301 18.3873 60.8174 27.5 60.8174Z" fill="#F7C4DA"/>
<path d="M27.5 49.8174C26.675 49.8174 27.0875 49.9549 21.0375 43.9049C20.4875 43.3549 20.4875 42.5299 21.0375 41.9799C21.5875 41.4299 22.4125 41.4299 22.9625 41.9799L27.5 46.5174L34.7875 39.2299C35.3375 38.6799 36.1625 38.6799 36.7125 39.2299C37.2625 39.7799 37.2625 40.6049 36.7125 41.1549C27.6375 50.2299 28.325 49.8174 27.5 49.8174Z" fill="#97144D"/>
<path d="M41.25 77.3174H13.75C12.925 77.3174 12.375 76.7674 12.375 75.9424C12.375 75.1174 12.925 74.5674 13.75 74.5674H41.25C42.075 74.5674 42.625 75.1174 42.625 75.9424C42.625 76.7674 42.075 77.3174 41.25 77.3174Z" fill="#F7C4DA"/>
<path d="M79.75 67.6924H63.25C62.425 67.6924 61.875 67.1424 61.875 66.3174V60.8174C61.875 59.9924 62.425 59.4424 63.25 59.4424H79.75C80.575 59.4424 81.125 59.9924 81.125 60.8174V66.3174C81.125 67.1424 80.575 67.6924 79.75 67.6924Z" fill="#E74B8F"/>
</g>
<defs>
<clipPath id="clip0_5857_133980">
<rect width="88" height="88" fill="white" transform="translate(0 0.317383)"/>
</clipPath>
</defs>
</svg>
