<svg width="88" height="89" viewBox="0 0 88 89" fill="none" xmlns="http://www.w3.org/2000/svg">
<g clip-path="url(#clip0_5857_133940)">
<path d="M58.4408 48.4328C56.4056 48.3605 54.7331 49.9888 54.7331 52.0077V48.3373C54.7331 46.3977 53.2247 44.7456 51.2863 44.6767C49.2512 44.6043 47.5786 46.2327 47.5786 48.2515V44.7601C47.5786 42.8203 46.0703 41.1684 44.1319 41.0995C42.0967 41.0271 40.4242 42.6554 40.4242 44.6743V32.5975C40.4242 30.6577 38.9158 29.0058 36.9774 28.9369C34.9422 28.8645 33.2697 30.4929 33.2697 32.5117V53.9751C33.2697 51.9994 31.6682 50.3979 29.6925 50.3979C27.7168 50.3979 26.1152 51.9994 26.1152 53.9751V71.8615C26.1152 73.0225 26.4918 74.1522 27.1884 75.081L30.408 79.3738C31.1046 80.3026 31.4812 81.4323 31.4812 82.5933V86.5463C31.4812 87.5243 32.2739 88.317 33.2518 88.317H58.3284C59.3064 88.317 60.099 87.5243 60.099 86.5463V82.5662C60.099 81.3962 60.2426 80.2308 60.5263 79.0959L61.4605 75.3591C61.7442 74.2241 61.8877 73.0586 61.8877 71.8888V52.0936C61.8876 50.1538 60.3792 48.5019 58.4408 48.4328Z" fill="#FBDFEB"/>
<path d="M31.4609 82.1423C31.4735 82.2915 31.4805 82.4416 31.4805 82.5923V86.5452C31.4805 87.5232 32.2732 88.3159 33.2512 88.3159H58.3277C59.3057 88.3159 60.0984 87.5232 60.0984 86.5452V82.5651C60.0984 81.3952 60.2419 80.2297 60.5257 79.0948L61.4598 75.3581C61.7436 74.223 61.8871 73.0575 61.8871 71.8876V55.4053C61.8869 55.4053 56.0198 79.3342 31.4609 82.1423Z" fill="#F7C4DA"/>
<path d="M21.3788 23.2117H9.38656C6.376 23.2117 3.93555 20.7712 3.93555 17.7606V5.7684C3.93555 2.75784 6.37617 0.317383 9.38656 0.317383H21.3788C24.3894 0.317383 26.8298 2.75784 26.8298 5.7684V17.7606C26.83 20.7712 24.3894 23.2117 21.3788 23.2117Z" fill="#D41C6C"/>
<path d="M49.9979 23.2117H38.0057C34.9951 23.2117 32.5547 20.7712 32.5547 17.7606V5.7684C32.5545 2.75784 34.9951 0.317383 38.0055 0.317383H49.9978C53.0083 0.317383 55.4488 2.75784 55.4488 5.7684V17.7606C55.449 20.7712 53.0083 23.2117 49.9979 23.2117Z" fill="#FBDFEB"/>
<path d="M49.9981 0.317383H45.3477C48.3582 0.317383 50.7987 2.75784 50.7987 5.7684V17.7606C50.7987 20.7712 48.3582 23.2117 45.3477 23.2117H49.9981C53.0086 23.2117 55.4491 20.7712 55.4491 17.7606V5.7684C55.4491 2.75784 53.0085 0.317383 49.9981 0.317383Z" fill="#E74B8F"/>
<path d="M78.6151 23.2117H66.6229C63.6123 23.2117 61.1719 20.7712 61.1719 17.7606V5.7684C61.1717 2.75784 63.6123 0.317383 66.6227 0.317383H78.615C81.6255 0.317383 84.066 2.75784 84.066 5.7684V17.7606C84.0661 20.7712 81.6255 23.2117 78.6151 23.2117Z" fill="#FBDFEB"/>
<path d="M78.6153 0.317383H73.9648C76.9754 0.317383 79.4159 2.75784 79.4159 5.7684V17.7606C79.4159 20.7712 76.9754 23.2117 73.9648 23.2117H78.6153C81.6258 23.2117 84.0663 20.7712 84.0663 17.7606V5.7684C84.0663 2.75784 81.6257 0.317383 78.6153 0.317383Z" fill="#E74B8F"/>
<path d="M31.896 65.0203L32.8797 64.0366C33.1287 63.7874 33.2686 63.4499 33.2686 63.0975V53.9751C33.2684 52.3187 32.1409 50.9295 30.6126 50.5225V62.5475L30.0179 63.1422C29.4992 63.6609 29.4992 64.5016 30.0179 65.0205C30.5367 65.5387 31.3775 65.5387 31.896 65.0203Z" fill="#D41C6C"/>
<path d="M53.4043 60.6706C54.1378 60.6706 54.7322 60.0761 54.7322 59.3427V48.3377C54.7316 46.6724 53.6179 45.2225 52.0762 44.8018V59.3427C52.0763 60.0761 52.6709 60.6706 53.4043 60.6706Z" fill="#D41C6C"/>
<path d="M39.0957 60.6702C39.829 60.6702 40.4236 60.0757 40.4236 59.3423V44.6752V44.6757V32.5989C40.4236 30.9331 39.3096 29.4824 37.7676 29.0615V59.3423C37.7676 60.0757 38.3623 60.6702 39.0957 60.6702Z" fill="#D41C6C"/>
<path d="M46.25 60.6697C46.9835 60.6697 47.5779 60.0752 47.5779 59.3418V44.7605C47.5777 43.0948 46.4639 41.6444 44.9219 41.2236V59.3418C44.9219 60.0752 45.5164 60.6697 46.25 60.6697Z" fill="#D41C6C"/>
<path d="M14.0707 15.6771C13.7409 15.6771 13.4109 15.5513 13.1593 15.2997L10.5358 12.6764C10.0323 12.1728 10.0323 11.3567 10.5358 10.8535C11.0392 10.3499 11.8554 10.3501 12.3587 10.8533L14.0706 12.5652L18.4056 8.22998C18.909 7.72673 19.7252 7.72673 20.2285 8.22998C20.7319 8.73357 20.7319 9.54963 20.2285 10.0531L14.9822 15.2997C14.7306 15.5513 14.4006 15.6771 14.0707 15.6771Z" fill="white"/>
</g>
<defs>
<clipPath id="clip0_5857_133940">
<rect width="88" height="88" fill="white" transform="translate(0 0.317383)"/>
</clipPath>
</defs>
</svg>
