<svg width="25" height="24" viewBox="0 0 25 24" fill="none" xmlns="http://www.w3.org/2000/svg">
<mask id="mask0_5857_134107" style="mask-type:alpha" maskUnits="userSpaceOnUse" x="0" y="0" width="25" height="24">
<rect x="0.452148" width="24" height="24" fill="#D9D9D9"/>
</mask>
<g mask="url(#mask0_5857_134107)">
<path d="M4.95215 18.8845V17.3848H6.7599V9.923C6.7599 8.57817 7.17498 7.38908 8.00515 6.35575C8.83515 5.32242 9.90082 4.6615 11.2021 4.373V3.75C11.2021 3.40283 11.3236 3.10767 11.5664 2.8645C11.8092 2.6215 12.1041 2.5 12.4509 2.5C12.7979 2.5 13.0931 2.6215 13.3366 2.8645C13.5803 3.10767 13.7021 3.40283 13.7021 3.75V4.373C15.0035 4.6615 16.0691 5.32242 16.8991 6.35575C17.7293 7.38908 18.1444 8.57817 18.1444 9.923V17.3848H19.9521V18.8845H4.95215ZM12.4504 21.6923C11.9529 21.6923 11.5276 21.5153 11.1744 21.1613C10.8211 20.8073 10.6444 20.3817 10.6444 19.8845H14.2599C14.2599 20.3833 14.0827 20.8093 13.7284 21.1625C13.3741 21.5157 12.9481 21.6923 12.4504 21.6923ZM8.2599 17.3848H16.6444V9.923C16.6444 8.76533 16.2351 7.77725 15.4166 6.95875C14.598 6.14008 13.6098 5.73075 12.4521 5.73075C11.2945 5.73075 10.3063 6.14008 9.48765 6.95875C8.66915 7.77725 8.2599 8.76533 8.2599 9.923V17.3848Z" fill="white"/>
</g>
</svg>
