<svg width="14" height="10" viewBox="0 0 14 10" fill="none" xmlns="http://www.w3.org/2000/svg">
<path d="M0.307465 1.84806L6.55746 9.34806C6.61551 9.41779 6.68444 9.47311 6.76031 9.51085C6.83619 9.5486 6.91752 9.56802 6.99965 9.56802C7.08179 9.56802 7.16312 9.5486 7.23899 9.51085C7.31486 9.47311 7.38379 9.41779 7.44184 9.34806L13.6918 1.84806C13.8091 1.70733 13.875 1.51646 13.875 1.31743C13.875 1.11841 13.8091 0.927539 13.6918 0.786808C13.5746 0.646078 13.4155 0.567017 13.2497 0.567017C13.0838 0.567017 12.9247 0.646078 12.8075 0.786808L6.99965 7.75712L1.19184 0.786808C1.13377 0.717126 1.06483 0.66185 0.988962 0.624138C0.913092 0.586426 0.831774 0.567017 0.749652 0.567017C0.66753 0.567017 0.586212 0.586426 0.510342 0.624138C0.434471 0.66185 0.365533 0.717126 0.307465 0.786808C0.249395 0.856491 0.203333 0.939216 0.171906 1.03026C0.14048 1.12131 0.124304 1.21889 0.124304 1.31743C0.124304 1.41598 0.14048 1.51356 0.171906 1.60461C0.203333 1.69565 0.249395 1.77838 0.307465 1.84806Z" fill="black"/>
</svg>
