<svg width="88" height="136" viewBox="0 0 88 136" fill="none" xmlns="http://www.w3.org/2000/svg">
<path d="M84.0207 39.1028H76.9443V13.8994H84.0207C86.1526 13.8994 87.8808 15.7606 87.8808 18.0564V34.9469C87.8798 37.2416 86.1526 39.1028 84.0207 39.1028Z" fill="#273C47"/>
<path d="M3.97918 30.7745H10.8825V13.8994H3.97918C1.84736 13.8994 0.119141 15.7606 0.119141 18.0564V26.6185C0.119141 28.9133 1.84736 30.7745 3.97918 30.7745Z" fill="#273C47"/>
<path d="M3.97918 52.3162H10.9657V35.4412H3.97918C1.84736 35.4412 0.119141 37.3023 0.119141 39.5981V48.1603C0.119141 50.455 1.84736 52.3162 3.97918 52.3162Z" fill="#273C47"/>
<path d="M76.8146 0.317383H11.1863C6.65396 0.317383 2.97852 4.27453 2.97852 9.15659V126.478C2.97852 131.359 6.65396 135.318 11.1863 135.318H76.8146C81.3479 135.318 85.0224 131.359 85.0224 126.478V9.15659C85.0224 4.27453 81.3479 0.317383 76.8146 0.317383Z" fill="#405968"/>
<path d="M17.5206 135.318H11.1863C6.65301 135.318 2.97852 131.362 2.97852 126.479V9.15556C2.97852 4.2735 6.65301 0.317383 11.1863 0.317383H17.5206C12.9873 0.317383 9.31372 4.2735 9.31372 9.15556V126.479C9.31372 131.362 12.9873 135.318 17.5206 135.318Z" fill="#273C47"/>
<path d="M5.99219 13.8994H82.0069V116.475H5.99219V13.8994Z" fill="#FFF6E3"/>
<path fill-rule="evenodd" clip-rule="evenodd" d="M63.8361 57.6028H52.284L45.2695 45.0862H56.8197L63.8361 57.6028Z" fill="#97144D"/>
<path fill-rule="evenodd" clip-rule="evenodd" d="M45.7709 26.292L51.7276 35.975L38.564 57.5836H26.7031L45.7709 26.292Z" fill="#97144D"/>
<path d="M5.99219 13.8994H9.31281V116.475H5.99219V13.8994Z" fill="#DDD3C3"/>
<path d="M78.6875 13.8994H82.0081V116.475H78.6875V13.8994Z" fill="white"/>
<path d="M50.3351 9.39298H37.6666C36.6069 9.39298 35.748 8.46807 35.748 7.32686C35.748 6.18566 36.6069 5.26074 37.6666 5.26074H50.3351C51.3948 5.26074 52.2536 6.18566 52.2536 7.32686C52.2536 8.46807 51.3948 9.39298 50.3351 9.39298Z" fill="#273C47"/>
<path d="M50.3351 127.399H37.6666C36.6069 127.399 35.748 126.474 35.748 125.333C35.748 124.192 36.6069 123.267 37.6666 123.267H50.3351C51.3948 123.267 52.2536 124.192 52.2536 125.333C52.2536 126.474 51.3948 127.399 50.3351 127.399Z" fill="#273C47"/>
<path d="M41.4482 100.469L45.4399 105.043L58.87 89.6505H52.6941V76.1143H38.1837V89.6505H32.0078L37.7639 96.2478L41.4482 100.469Z" fill="#259F64"/>
</svg>
