<svg width="80" height="80" viewBox="0 0 80 80" fill="none" xmlns="http://www.w3.org/2000/svg">
<path d="M29.6121 11.9875C29.3871 11.575 29.1621 11.175 28.8996 10.7375C27.6492 8.82639 25.9647 7.23796 23.9835 6.10181C22.0023 4.96567 19.7806 4.31402 17.4996 4.20001C17.2331 4.18233 16.9679 4.25046 16.743 4.39443C16.5181 4.53839 16.3451 4.75062 16.2496 5.00001C15.4285 7.13196 15.1247 9.42819 15.363 11.7003C15.6013 13.9724 16.3749 16.1557 17.6204 18.0709C18.8659 19.9861 20.5478 21.5787 22.528 22.718C24.5082 23.8573 26.7304 24.5109 29.0121 24.625H29.0746C29.2452 24.6253 29.4142 24.5907 29.5709 24.5232C29.7277 24.4558 29.869 24.3569 29.9861 24.2328C30.1032 24.1087 30.1936 23.9619 30.2518 23.8014C30.3101 23.641 30.3348 23.4704 30.3246 23.3C29.6871 12.075 29.8371 12.5 29.6121 11.9875Z" fill="url(#paint0_linear_5857_133102)"/>
<path d="M55 55H15C14.3096 55 13.75 55.5596 13.75 56.25V63.75C13.75 64.4404 14.3096 65 15 65H55C55.6904 65 56.25 64.4404 56.25 63.75V56.25C56.25 55.5596 55.6904 55 55 55Z" fill="url(#paint1_linear_5857_133102)"/>
<path d="M46.25 45H6.25C5.55964 45 5 45.5596 5 46.25V53.75C5 54.4404 5.55964 55 6.25 55H46.25C46.9404 55 47.5 54.4404 47.5 53.75V46.25C47.5 45.5596 46.9404 45 46.25 45Z" fill="url(#paint2_linear_5857_133102)"/>
<path d="M47.5 65H7.5C6.80964 65 6.25 65.5596 6.25 66.25V73.75C6.25 74.4404 6.80964 75 7.5 75H47.5C48.1904 75 48.75 74.4404 48.75 73.75V66.25C48.75 65.5596 48.1904 65 47.5 65Z" fill="url(#paint3_linear_5857_133102)"/>
<path d="M6.25 70V73.75C6.25 74.0815 6.3817 74.3995 6.61612 74.6339C6.85054 74.8683 7.16848 75 7.5 75H47.5C47.8315 75 48.1495 74.8683 48.3839 74.6339C48.6183 74.3995 48.75 74.0815 48.75 73.75V70H6.25Z" fill="#EF8C29"/>
<path d="M13.75 60V63.75C13.75 64.0815 13.8817 64.3995 14.1161 64.6339C14.3505 64.8683 14.6685 65 15 65H55C55.3315 65 55.6495 64.8683 55.8839 64.6339C56.1183 64.3995 56.25 64.0815 56.25 63.75V60H13.75Z" fill="#EF8C29"/>
<path d="M5 50V53.75C5 54.0815 5.1317 54.3995 5.36612 54.6339C5.60054 54.8683 5.91848 55 6.25 55H46.25C46.5815 55 46.8995 54.8683 47.1339 54.6339C47.3683 54.3995 47.5 54.0815 47.5 53.75V50H5Z" fill="#EF8C29"/>
<path d="M11.25 65H13.75V70H11.25V65Z" fill="#B2500D"/>
<path d="M21.25 65H23.75V70H21.25V65Z" fill="#B2500D"/>
<path d="M31.25 65H33.75V70H31.25V65Z" fill="#B2500D"/>
<path d="M41.25 65H43.75V70H41.25V65Z" fill="#B2500D"/>
<path d="M36.25 70H38.75V75H36.25V70Z" fill="#B2500D"/>
<path d="M26.25 70H28.75V75H26.25V70Z" fill="#B2500D"/>
<path d="M16.25 70H18.75V75H16.25V70Z" fill="#B2500D"/>
<path d="M18.75 55H21.25V60H18.75V55Z" fill="#B2500D"/>
<path d="M28.75 55H31.25V60H28.75V55Z" fill="#B2500D"/>
<path d="M38.75 55H41.25V60H38.75V55Z" fill="#B2500D"/>
<path d="M48.75 55H51.25V60H48.75V55Z" fill="#B2500D"/>
<path d="M43.75 60H46.25V65H43.75V60Z" fill="#B2500D"/>
<path d="M23.75 60H26.25V65H23.75V60Z" fill="#B2500D"/>
<path d="M10 45H12.5V50H10V45Z" fill="#B2500D"/>
<path d="M20 45H22.5V50H20V45Z" fill="#B2500D"/>
<path d="M30 45H32.5V50H30V45Z" fill="#B2500D"/>
<path d="M40 45H42.5V50H40V45Z" fill="#B2500D"/>
<path d="M35 50H37.5V55H35V50Z" fill="#B2500D"/>
<path d="M25 50H27.5V55H25V50Z" fill="#B2500D"/>
<path d="M15 50H17.5V55H15V50Z" fill="#B2500D"/>
<path d="M55.0004 55H46.2504C46.5819 55 46.8998 54.8683 47.1342 54.6339C47.3687 54.3995 47.5004 54.0815 47.5004 53.75V46.25C47.5004 45.9185 47.3687 45.6005 47.1342 45.3661C46.8998 45.1317 46.5819 45 46.2504 45H34.0879C31.4343 49.9486 30.6199 55.6773 31.7893 61.1694C32.9586 66.6615 36.0361 71.5616 40.4754 75H47.5004C47.8319 75 48.1498 74.8683 48.3842 74.6339C48.6187 74.3995 48.7504 74.0815 48.7504 73.75V66.25C48.7504 65.9185 48.6187 65.6005 48.3842 65.3661C48.1498 65.1317 47.8319 65 47.5004 65H55.0004C55.3319 65 55.6498 64.8683 55.8842 64.6339C56.1187 64.3995 56.2504 64.0815 56.2504 63.75V56.25C56.2504 55.9185 56.1187 55.6005 55.8842 55.3661C55.6498 55.1317 55.3319 55 55.0004 55Z" fill="url(#paint4_linear_5857_133102)"/>
<path d="M55 77.5C66.736 77.5 76.25 67.986 76.25 56.25C76.25 44.5139 66.736 35 55 35C43.2639 35 33.75 44.5139 33.75 56.25C33.75 67.986 43.2639 77.5 55 77.5Z" fill="url(#paint5_linear_5857_133102)"/>
<path d="M56.6127 54.9999H56.2502V49.9999H56.6127C57.2757 49.9999 57.9116 50.2633 58.3805 50.7321C58.8493 51.201 59.1127 51.8369 59.1127 52.4999H61.6127C61.6127 51.1738 61.0859 49.9021 60.1482 48.9644C59.2105 48.0267 57.9388 47.4999 56.6127 47.4999H56.2502V44.4624H53.7502V47.4999H53.3877C52.0616 47.4999 50.7898 48.0267 49.8522 48.9644C48.9145 49.9021 48.3877 51.1738 48.3877 52.4999C48.3877 53.826 48.9145 55.0978 49.8522 56.0354C50.7898 56.9731 52.0616 57.4999 53.3877 57.4999H53.7502V62.4999H53.3877C52.7247 62.4999 52.0888 62.2365 51.6199 61.7677C51.1511 61.2988 50.8877 60.6629 50.8877 59.9999H48.3877C48.3877 61.326 48.9145 62.5978 49.8522 63.5354C50.7898 64.4731 52.0616 64.9999 53.3877 64.9999H53.7502V68.0374H56.2502V64.9999H56.6127C57.9388 64.9999 59.2105 64.4731 60.1482 63.5354C61.0859 62.5978 61.6127 61.326 61.6127 59.9999C61.6127 58.6738 61.0859 57.4021 60.1482 56.4644C59.2105 55.5267 57.9388 54.9999 56.6127 54.9999ZM53.3877 54.9999C52.7247 54.9999 52.0888 54.7365 51.6199 54.2677C51.1511 53.7988 50.8877 53.1629 50.8877 52.4999C50.8877 51.8369 51.1511 51.201 51.6199 50.7321C52.0888 50.2633 52.7247 49.9999 53.3877 49.9999H53.7502V54.9999H53.3877ZM56.6127 62.4999H56.2502V57.4999H56.6127C57.2757 57.4999 57.9116 57.7633 58.3805 58.2321C58.8493 58.701 59.1127 59.3369 59.1127 59.9999C59.1127 60.6629 58.8493 61.2988 58.3805 61.7677C57.9116 62.2365 57.2757 62.4999 56.6127 62.4999Z" fill="#B2500D"/>
<path d="M55 72.5C51.7861 72.5 48.6443 71.547 45.972 69.7614C43.2997 67.9758 41.2169 65.4379 39.987 62.4686C38.757 59.4993 38.4352 56.232 39.0622 53.0798C39.6893 49.9276 41.2369 47.0321 43.5095 44.7595C45.7821 42.4869 48.6776 40.9393 51.8298 40.3122C54.982 39.6852 58.2493 40.007 61.2186 41.237C64.1879 42.4669 66.7258 44.5497 68.5114 47.222C70.297 49.8943 71.25 53.0361 71.25 56.25C71.25 60.5598 69.538 64.693 66.4905 67.7405C63.443 70.788 59.3098 72.5 55 72.5ZM55 42.5C52.2805 42.5 49.6221 43.3064 47.3609 44.8173C45.0997 46.3282 43.3374 48.4756 42.2967 50.9881C41.256 53.5006 40.9837 56.2653 41.5142 58.9325C42.0448 61.5997 43.3543 64.0498 45.2773 65.9727C47.2003 67.8957 49.6503 69.2053 52.3175 69.7358C54.9848 70.2664 57.7494 69.9941 60.2619 68.9534C62.7744 67.9126 64.9218 66.1503 66.4327 63.8891C67.9436 61.6279 68.75 58.9695 68.75 56.25C68.75 52.6033 67.3014 49.1059 64.7227 46.5273C62.1441 43.9487 58.6467 42.5 55 42.5Z" fill="#B2500D"/>
<path d="M37.375 31.875L36.5125 29.525C34.1247 30.4453 31.9195 31.7827 30 33.475V22.5H27.5V37.5C25.9874 35.8335 24.2143 34.4235 22.25 33.325L21.0625 35.525C23.6167 36.9935 25.8149 39.0082 27.5 41.425V45H30V36.9375C32.0488 34.7197 34.569 32.9898 37.375 31.875Z" fill="url(#paint6_linear_5857_133102)"/>
<path d="M55.7503 24.4001C54.1053 23.1678 52.1915 22.3431 50.1661 21.9937C48.1406 21.6443 46.0611 21.7801 44.0983 22.39C42.1355 23 40.3453 24.0667 38.8746 25.5025C37.4039 26.9384 36.2946 28.7025 35.6378 30.6501C35.551 30.9014 35.5466 31.1739 35.6253 31.428C35.704 31.682 35.8616 31.9043 36.0753 32.0626C37.7212 33.2921 39.6348 34.1145 41.6596 34.4624C43.6844 34.8103 45.7628 34.6739 47.7247 34.0642C49.6866 33.4545 51.4763 32.389 52.9472 30.9548C54.4182 29.5206 55.5287 27.7584 56.1878 25.8126C56.2746 25.5612 56.279 25.2887 56.2003 25.0347C56.1216 24.7807 55.964 24.5584 55.7503 24.4001Z" fill="url(#paint7_linear_5857_133102)"/>
<path d="M22.9496 34.4501C22.5743 32.4861 21.7401 30.6386 20.5151 29.0583C19.29 27.478 17.7088 26.2096 15.9003 25.3566C14.0919 24.5035 12.1074 24.09 10.1088 24.1497C8.11016 24.2094 6.15393 24.7406 4.39963 25.7001C4.167 25.8227 3.97896 26.0155 3.86226 26.2512C3.74556 26.4868 3.70615 26.7533 3.74963 27.0126C4.12494 28.9766 4.95913 30.8241 6.18418 32.4044C7.40924 33.9847 8.99045 35.2531 10.7989 36.1061C12.6073 36.9592 14.5918 37.3727 16.5904 37.313C18.5891 37.2533 20.5453 36.7221 22.2996 35.7626C22.5322 35.64 22.7203 35.4472 22.837 35.2115C22.9537 34.9759 22.9931 34.7094 22.9496 34.4501Z" fill="url(#paint8_linear_5857_133102)"/>
<path d="M38.9002 5.45004C38.7814 5.21279 38.5902 5.01951 38.3542 4.89816C38.1183 4.77681 37.8498 4.73369 37.5877 4.77504C35.5504 5.08007 33.6148 5.8649 31.9403 7.06484C30.2659 8.26478 28.9005 9.84547 27.9569 11.6766C27.0132 13.5078 26.5182 15.537 26.5127 17.597C26.5072 19.657 26.9914 21.6888 27.9252 23.525C28.0405 23.7511 28.2218 23.9368 28.445 24.0574C28.6683 24.1779 28.923 24.2277 29.1752 24.2C31.218 23.9036 33.1609 23.125 34.843 21.9287C36.5251 20.7323 37.8982 19.1526 38.8485 17.3202C39.7989 15.4879 40.2993 13.4555 40.3083 11.3914C40.3173 9.32723 39.8346 7.29061 38.9002 5.45004Z" fill="url(#paint9_linear_5857_133102)"/>
<defs>
<linearGradient id="paint0_linear_5857_133102" x1="22.8371" y1="24.625" x2="22.8371" y2="4.18751" gradientUnits="userSpaceOnUse">
<stop stop-color="#00684E"/>
<stop offset="1" stop-color="#009C6B"/>
</linearGradient>
<linearGradient id="paint1_linear_5857_133102" x1="35" y1="55" x2="35" y2="65" gradientUnits="userSpaceOnUse">
<stop stop-color="#FFC033"/>
<stop offset="1" stop-color="#EF8E2E"/>
</linearGradient>
<linearGradient id="paint2_linear_5857_133102" x1="26.25" y1="45" x2="26.25" y2="55" gradientUnits="userSpaceOnUse">
<stop stop-color="#FFC033"/>
<stop offset="1" stop-color="#EF8E2E"/>
</linearGradient>
<linearGradient id="paint3_linear_5857_133102" x1="27.5" y1="65" x2="27.5" y2="75" gradientUnits="userSpaceOnUse">
<stop stop-color="#FFC033"/>
<stop offset="1" stop-color="#EF8E2E"/>
</linearGradient>
<linearGradient id="paint4_linear_5857_133102" x1="31.2504" y1="60" x2="56.2504" y2="60" gradientUnits="userSpaceOnUse">
<stop stop-color="#CE7F20"/>
<stop offset="1" stop-color="#B2500D"/>
</linearGradient>
<linearGradient id="paint5_linear_5857_133102" x1="55" y1="35" x2="55" y2="77.5" gradientUnits="userSpaceOnUse">
<stop stop-color="#FFC033"/>
<stop offset="1" stop-color="#EF8E2E"/>
</linearGradient>
<linearGradient id="paint6_linear_5857_133102" x1="29.2125" y1="45" x2="29.2125" y2="22.5" gradientUnits="userSpaceOnUse">
<stop stop-color="#009E77"/>
<stop offset="1" stop-color="#00D291"/>
</linearGradient>
<linearGradient id="paint7_linear_5857_133102" x1="45.9128" y1="34.6126" x2="45.9128" y2="21.8001" gradientUnits="userSpaceOnUse">
<stop stop-color="#009E77"/>
<stop offset="1" stop-color="#00D291"/>
</linearGradient>
<linearGradient id="paint8_linear_5857_133102" x1="13.3621" y1="37.3376" x2="13.3621" y2="24.1251" gradientUnits="userSpaceOnUse">
<stop stop-color="#009E77"/>
<stop offset="1" stop-color="#00D291"/>
</linearGradient>
<linearGradient id="paint9_linear_5857_133102" x1="33.4127" y1="24.1625" x2="33.4127" y2="4.76254" gradientUnits="userSpaceOnUse">
<stop stop-color="#009E77"/>
<stop offset="1" stop-color="#00D291"/>
</linearGradient>
</defs>
</svg>
