<svg width="25" height="24" viewBox="0 0 25 24" fill="none" xmlns="http://www.w3.org/2000/svg">
<mask id="mask0_5857_134090" style="mask-type:alpha" maskUnits="userSpaceOnUse" x="0" y="0" width="25" height="24">
<rect x="0.547852" width="24" height="24" fill="#D9D9D9"/>
</mask>
<g mask="url(#mask0_5857_134090)">
<path d="M19.5864 11.7308C19.5287 9.81275 18.8303 8.18425 17.4911 6.84525C16.1519 5.50608 14.5234 4.80767 12.6056 4.75V3.25C13.7723 3.27567 14.8645 3.51475 15.8824 3.96725C16.9004 4.41992 17.7895 5.02633 18.5499 5.7865C19.31 6.54683 19.9164 7.43592 20.3689 8.45375C20.8215 9.47175 21.0607 10.5641 21.0864 11.7308H19.5864ZM15.5864 11.7308C15.5287 10.9294 15.2178 10.2451 14.6536 9.67775C14.0894 9.11058 13.4068 8.80133 12.6056 8.75V7.25C13.8223 7.30133 14.8588 7.75675 15.7151 8.61625C16.5716 9.47592 17.0287 10.5141 17.0864 11.7308H15.5864ZM19.9881 20.5C18.1036 20.5 16.2104 20.0618 14.3084 19.1855C12.4065 18.3092 10.6575 17.073 9.06135 15.477C7.47168 13.8808 6.23869 12.1333 5.36235 10.2345C4.48602 8.33583 4.04785 6.44425 4.04785 4.55975C4.04785 4.25975 4.14785 4.00808 4.34785 3.80475C4.54785 3.60158 4.79785 3.5 5.09785 3.5H8.35935C8.61185 3.5 8.8346 3.58242 9.0276 3.74725C9.2206 3.91192 9.34335 4.11542 9.39585 4.35775L9.9691 7.3C10.0088 7.573 10.0004 7.80758 9.9441 8.00375C9.8876 8.19992 9.78627 8.36467 9.6401 8.498L7.3306 10.7462C7.70227 11.4269 8.12693 12.0708 8.6046 12.678C9.0821 13.285 9.5991 13.8648 10.1556 14.4173C10.7043 14.9661 11.2876 15.4757 11.9056 15.9462C12.5236 16.4167 13.1909 16.8546 13.9076 17.2598L16.1516 14.9963C16.3081 14.8334 16.4976 14.7193 16.7201 14.6538C16.9424 14.5884 17.1735 14.5724 17.4134 14.6058L20.1901 15.1713C20.4426 15.2379 20.6487 15.3667 20.8084 15.5577C20.968 15.7487 21.0479 15.9654 21.0479 16.2078V19.45C21.0479 19.75 20.9463 20 20.7431 20.2C20.5398 20.4 20.2881 20.5 19.9881 20.5ZM6.62085 9.327L8.4056 7.61925C8.4376 7.59358 8.45844 7.55833 8.4681 7.5135C8.47777 7.46867 8.47618 7.427 8.46335 7.3885L8.0286 5.15375C8.01577 5.10258 7.99335 5.06417 7.96135 5.0385C7.92935 5.01283 7.88769 5 7.83635 5H5.69785C5.65935 5 5.62727 5.01283 5.6016 5.0385C5.5761 5.06417 5.56335 5.09625 5.56335 5.13475C5.61452 5.81808 5.72635 6.51225 5.89885 7.21725C6.07118 7.92242 6.31185 8.62567 6.62085 9.327ZM15.3209 17.9693C15.9837 18.2783 16.675 18.5145 17.3949 18.678C18.1149 18.8413 18.7876 18.9384 19.4131 18.9693C19.4516 18.9693 19.4837 18.9564 19.5094 18.9307C19.535 18.9051 19.5479 18.873 19.5479 18.8345V16.7308C19.5479 16.6794 19.535 16.6377 19.5094 16.6058C19.4837 16.5738 19.4453 16.5513 19.3941 16.5385L17.2941 16.1115C17.2556 16.0987 17.2219 16.0971 17.1931 16.1068C17.1643 16.1164 17.1338 16.1373 17.1016 16.1693L15.3209 17.9693Z" fill="white"/>
</g>
</svg>
