<svg width="35" height="8" viewBox="0 0 35 8" fill="none" xmlns="http://www.w3.org/2000/svg">
<path d="M34.6866 4.67081C34.8818 4.47555 34.8818 4.15897 34.6866 3.96371L31.5046 0.781727C31.3093 0.586465 30.9927 0.586465 30.7975 0.781727C30.6022 0.976989 30.6022 1.29357 30.7975 1.48883L33.6259 4.31726L30.7975 7.14569C30.6022 7.34095 30.6022 7.65753 30.7975 7.85279C30.9927 8.04806 31.3093 8.04806 31.5046 7.85279L34.6866 4.67081ZM1.27745 4.81726C1.55359 4.81726 1.77745 4.5934 1.77745 4.31726C1.77745 4.04112 1.55359 3.81726 1.27745 3.81726V4.81726ZM3.16634 3.81726C2.8902 3.81726 2.66634 4.04112 2.66634 4.31726C2.66634 4.5934 2.8902 4.81726 3.16634 4.81726V3.81726ZM5.05523 4.81726C5.33137 4.81726 5.55523 4.5934 5.55523 4.31726C5.55523 4.04112 5.33137 3.81726 5.05523 3.81726V4.81726ZM6.94412 3.81726C6.66798 3.81726 6.44412 4.04112 6.44412 4.31726C6.44412 4.5934 6.66798 4.81726 6.94412 4.81726V3.81726ZM8.83301 4.81726C9.10915 4.81726 9.33301 4.5934 9.33301 4.31726C9.33301 4.04112 9.10915 3.81726 8.83301 3.81726V4.81726ZM10.7219 3.81726C10.4458 3.81726 10.2219 4.04112 10.2219 4.31726C10.2219 4.5934 10.4458 4.81726 10.7219 4.81726V3.81726ZM12.6108 4.81726C12.8869 4.81726 13.1108 4.5934 13.1108 4.31726C13.1108 4.04112 12.8869 3.81726 12.6108 3.81726V4.81726ZM14.4997 3.81726C14.2235 3.81726 13.9997 4.04112 13.9997 4.31726C13.9997 4.5934 14.2235 4.81726 14.4997 4.81726V3.81726ZM16.3886 4.81726C16.6647 4.81726 16.8886 4.5934 16.8886 4.31726C16.8886 4.04112 16.6647 3.81726 16.3886 3.81726V4.81726ZM18.2775 3.81726C18.0013 3.81726 17.7775 4.04112 17.7775 4.31726C17.7775 4.5934 18.0013 4.81726 18.2775 4.81726V3.81726ZM20.1663 4.81726C20.4425 4.81726 20.6663 4.5934 20.6663 4.31726C20.6663 4.04112 20.4425 3.81726 20.1663 3.81726V4.81726ZM22.0552 3.81726C21.7791 3.81726 21.5552 4.04112 21.5552 4.31726C21.5552 4.5934 21.7791 4.81726 22.0552 4.81726V3.81726ZM23.9441 4.81726C24.2203 4.81726 24.4441 4.5934 24.4441 4.31726C24.4441 4.04112 24.2203 3.81726 23.9441 3.81726V4.81726ZM25.833 3.81726C25.5569 3.81726 25.333 4.04112 25.333 4.31726C25.333 4.5934 25.5569 4.81726 25.833 4.81726V3.81726ZM27.7219 4.81726C27.998 4.81726 28.2219 4.5934 28.2219 4.31726C28.2219 4.04112 27.998 3.81726 27.7219 3.81726V4.81726ZM29.6108 3.81726C29.3346 3.81726 29.1108 4.04112 29.1108 4.31726C29.1108 4.5934 29.3346 4.81726 29.6108 4.81726V3.81726ZM31.4997 4.81726C31.7758 4.81726 31.9997 4.5934 31.9997 4.31726C31.9997 4.04112 31.7758 3.81726 31.4997 3.81726V4.81726ZM33.3886 3.81726C33.1124 3.81726 32.8886 4.04112 32.8886 4.31726C32.8886 4.5934 33.1124 4.81726 33.3886 4.81726V3.81726ZM0.333008 4.81726H1.27745V3.81726H0.333008V4.81726ZM3.16634 4.81726H5.05523V3.81726H3.16634V4.81726ZM6.94412 4.81726H8.83301V3.81726H6.94412V4.81726ZM10.7219 4.81726H12.6108V3.81726H10.7219V4.81726ZM14.4997 4.81726H16.3886V3.81726H14.4997V4.81726ZM18.2775 4.81726H20.1663V3.81726H18.2775V4.81726ZM22.0552 4.81726H23.9441V3.81726H22.0552V4.81726ZM25.833 4.81726H27.7219V3.81726H25.833V4.81726ZM29.6108 4.81726H31.4997V3.81726H29.6108V4.81726ZM33.3886 4.81726H34.333V3.81726H33.3886V4.81726Z" fill="#6D6E71"/>
</svg>
