<svg width="18" height="17" viewBox="0 0 18 17" fill="none" xmlns="http://www.w3.org/2000/svg">
<path d="M16.5791 16.6538L10.3176 10.3923C9.81759 10.818 9.24259 11.1475 8.59259 11.3808C7.94259 11.6141 7.28943 11.7308 6.63309 11.7308C5.03143 11.7308 3.67584 11.1764 2.56634 10.0675C1.45701 8.9587 0.902344 7.60395 0.902344 6.00329C0.902344 4.40245 1.45676 3.04654 2.56559 1.93554C3.67443 0.824703 5.02918 0.269287 6.62984 0.269287C8.23068 0.269287 9.58659 0.823954 10.6976 1.93329C11.8084 3.04279 12.3638 4.39837 12.3638 6.00004C12.3638 6.69487 12.2408 7.36729 11.9946 8.01729C11.7484 8.66729 11.4253 9.22304 11.0253 9.68454L17.2868 15.9463L16.5791 16.6538ZM6.63309 10.7308C7.95993 10.7308 9.08009 10.274 9.99359 9.36054C10.9071 8.4472 11.3638 7.32704 11.3638 6.00004C11.3638 4.67304 10.9071 3.55287 9.99359 2.63954C9.08009 1.72604 7.95993 1.26929 6.63309 1.26929C5.30609 1.26929 4.18593 1.72604 3.27259 2.63954C2.35909 3.55287 1.90234 4.67304 1.90234 6.00004C1.90234 7.32704 2.35909 8.4472 3.27259 9.36054C4.18593 10.274 5.30609 10.7308 6.63309 10.7308Z" fill="#1C1B1F"/>
</svg>
