<svg width="34" height="46" viewBox="0 0 34 46" fill="none" xmlns="http://www.w3.org/2000/svg">
<path d="M0.96875 36.3744V42.0214C0.96875 43.4776 2.1493 44.6581 3.60547 44.6581H29.7276C31.1838 44.6581 32.3643 43.4776 32.3643 42.0214V36.3744H0.96875Z" fill="#9BC9FF"/>
<path d="M28.9805 36.3744V40.4926C28.9805 40.978 28.5871 41.3715 28.1016 41.3715H0.96875V42.0214C0.96875 43.4776 2.1493 44.6581 3.60547 44.6581H29.7276C31.1838 44.6581 32.3643 43.4776 32.3643 42.0214V36.3744H28.9805Z" fill="#9BC9FF"/>
<path d="M32.3643 36.4623V3.61316C32.3643 2.1569 31.1839 0.97644 29.7276 0.97644H3.60547C2.14921 0.97644 0.96875 2.1569 0.96875 3.61316V36.4623H32.3643Z" fill="#9BC9FF"/>
<path d="M29.7275 0.97644H28.9805V36.4623H32.3643V3.61316C32.3643 2.1569 31.1838 0.97644 29.7275 0.97644Z" fill="#9BC9FF"/>
<path d="M16.667 28.7499C22.4919 28.7499 27.2139 24.0279 27.2139 18.203C27.2139 12.3781 22.4919 7.65613 16.667 7.65613C10.8421 7.65613 6.12012 12.3781 6.12012 18.203C6.12012 24.0279 10.8421 28.7499 16.667 28.7499Z" fill="white"/>
<path d="M19.6304 8.07879C22.1061 10.0088 23.6985 13.019 23.6985 16.4012C23.6985 22.2261 18.9765 26.9481 13.1516 26.9481C12.1228 26.9481 11.1286 26.8002 10.1885 26.5255C11.9763 27.9192 14.2247 28.7499 16.6672 28.7499C22.4921 28.7499 27.2141 24.0279 27.2141 18.203C27.2141 13.407 24.0126 9.35927 19.6304 8.07879Z" fill="#9BC9FF"/>
<path d="M16.6666 20.2804C18.6965 20.2804 20.342 18.6348 20.342 16.605C20.342 14.5751 18.6965 12.9296 16.6666 12.9296C14.6367 12.9296 12.9912 14.5751 12.9912 16.605C12.9912 18.6348 14.6367 20.2804 16.6666 20.2804Z" fill="#9BC9FF"/>
<path d="M17.8897 13.1386C18.2833 13.7238 18.513 14.4285 18.513 15.1868C18.513 17.2166 16.8675 18.8622 14.8376 18.8622C14.409 18.8622 13.9977 18.7881 13.6152 18.6532C14.2751 19.6346 15.3957 20.2805 16.6673 20.2805C18.6972 20.2805 20.3427 18.6349 20.3427 16.6051C20.3427 15.0038 19.3185 13.6424 17.8897 13.1386Z" fill="#9BC9FF"/>
<path d="M16.6668 28.7499C19.3221 28.7499 21.7462 27.7665 23.6003 26.1469C23.045 22.8183 20.1531 20.2805 16.6668 20.2805C13.1806 20.2805 10.2886 22.8183 9.7334 26.1469C11.5875 27.7665 14.0116 28.7499 16.6668 28.7499Z" fill="#9BC9FF"/>
<path d="M13.1513 26.9481C12.1254 26.9481 11.134 26.8011 10.1963 26.5279C11.9828 27.9191 14.2271 28.7499 16.667 28.7499C19.3222 28.7499 21.7463 27.7665 23.6004 26.1469C23.3655 24.7384 22.7109 23.4726 21.7711 22.4796C19.8615 25.1827 16.7128 26.9481 13.1513 26.9481Z" fill="#9BC9FF"/>
<path d="M28.7295 8.51306H26.3564V6.14001C26.3564 5.89735 26.1597 5.70056 25.917 5.70056H23.8955C23.6528 5.70056 23.4561 5.89735 23.4561 6.14001V8.51306H21.083C20.8403 8.51306 20.6436 8.70985 20.6436 8.95251V10.974C20.6436 11.2167 20.8403 11.4135 21.083 11.4135H23.4561V13.7865C23.4561 14.0292 23.6528 14.226 23.8955 14.226H25.917C26.1597 14.226 26.3564 14.0292 26.3564 13.7865V11.4135H28.7295C28.9722 11.4135 29.1689 11.2167 29.1689 10.974V8.95251C29.1689 8.70985 28.9722 8.51306 28.7295 8.51306Z" fill="#9BC9FF"/>
<path d="M23.9184 39.6044H9.41455C7.50935 39.6044 5.96484 38.0599 5.96484 36.1547C5.96484 34.2495 7.50935 32.705 9.41455 32.705H23.9184C25.8236 32.705 27.3681 34.2495 27.3681 36.1547C27.3681 38.0599 25.8236 39.6044 23.9184 39.6044Z" fill="#9BC9FF"/>
<path d="M24.2255 32.7193V35.7811C24.2255 36.2666 23.832 36.66 23.3466 36.66H6.00293C6.24762 38.3256 7.68155 39.6044 9.41493 39.6044H23.9187C25.8239 39.6044 27.3684 38.0599 27.3684 36.1547C27.3684 34.3529 25.9869 32.8746 24.2255 32.7193Z" fill="#9BC9FF"/>
<path d="M9.63574 36.1547H23.6982" stroke="#1E81CE" stroke-width="1.5" stroke-miterlimit="10" stroke-linecap="round" stroke-linejoin="round"/>
<path d="M4.62598 4.53601H4.76704" stroke="#1E81CE" stroke-width="1.5" stroke-miterlimit="10" stroke-linecap="round" stroke-linejoin="round"/>
<path d="M7.2002 4.53601H7.34126" stroke="#1E81CE" stroke-width="1.5" stroke-miterlimit="10" stroke-linecap="round" stroke-linejoin="round"/>
<path d="M9.77344 4.53601H9.9145" stroke="#1E81CE" stroke-width="1.5" stroke-miterlimit="10" stroke-linecap="round" stroke-linejoin="round"/>
<path d="M0.96875 36.1547V42.0214C0.96875 43.4776 2.1493 44.6581 3.60547 44.6581H29.7276C31.1838 44.6581 32.3643 43.4776 32.3643 42.0214V36.1547" stroke="#1E81CE" stroke-width="1.5" stroke-miterlimit="10" stroke-linecap="round" stroke-linejoin="round"/>
<path d="M27.3538 36.4623H32.3643V3.61316C32.3643 2.1569 31.1838 0.97644 29.7276 0.97644H3.60547C2.1493 0.97644 0.96875 2.1569 0.96875 3.61316V24.0477" stroke="#1E81CE" stroke-width="1.5" stroke-miterlimit="10" stroke-linecap="round" stroke-linejoin="round"/>
<path d="M0.96875 27.1239V36.4623H5.97931C5.97034 36.3609 5.96489 36.2584 5.96489 36.1547" stroke="#1E81CE" stroke-width="1.5" stroke-miterlimit="10" stroke-linecap="round" stroke-linejoin="round"/>
<path d="M16.6666 20.2804C18.6965 20.2804 20.342 18.6348 20.342 16.605C20.342 14.5751 18.6965 12.9296 16.6666 12.9296C14.6367 12.9296 12.9912 14.5751 12.9912 16.605C12.9912 18.6348 14.6367 20.2804 16.6666 20.2804Z" stroke="#1E81CE" stroke-width="1.5" stroke-miterlimit="10" stroke-linecap="round" stroke-linejoin="round"/>
<path d="M23.6003 26.1469C23.045 22.8183 20.1531 20.2805 16.6668 20.2805C13.1806 20.2805 10.2886 22.8183 9.7334 26.1469" stroke="#1E81CE" stroke-width="1.5" stroke-miterlimit="10" stroke-linejoin="round"/>
<path d="M28.7295 8.51306H26.3564V6.14001C26.3564 5.89735 26.1597 5.70056 25.917 5.70056H23.8955C23.6528 5.70056 23.4561 5.89735 23.4561 6.14001V8.51306H21.083C20.8403 8.51306 20.6436 8.70985 20.6436 8.95251V10.974C20.6436 11.2167 20.8403 11.4135 21.083 11.4135H23.4561V13.7865C23.4561 14.0292 23.6528 14.226 23.8955 14.226H25.917C26.1597 14.226 26.3564 14.0292 26.3564 13.7865V11.4135H28.7295C28.9722 11.4135 29.1689 11.2167 29.1689 10.974V8.95251C29.1689 8.70985 28.9722 8.51306 28.7295 8.51306Z" stroke="#1E81CE" stroke-width="1.5" stroke-miterlimit="10" stroke-linecap="round" stroke-linejoin="round"/>
<path d="M18.688 32.705H9.41455C7.50935 32.705 5.96484 34.2495 5.96484 36.1547C5.96484 38.0599 7.50935 39.6044 9.41455 39.6044H23.9184C25.8236 39.6044 27.3681 38.0599 27.3681 36.1547C27.3681 34.2495 25.8236 32.705 23.9184 32.705H21.7642" stroke="#1E81CE" stroke-width="1.5" stroke-miterlimit="10" stroke-linecap="round" stroke-linejoin="round"/>
<path d="M20.9139 8.54708C19.6144 7.97464 18.1778 7.65613 16.6666 7.65613C15.3311 7.65613 14.0539 7.90495 12.8779 8.35785" stroke="#1E81CE" stroke-width="1.5" stroke-miterlimit="10" stroke-linecap="round" stroke-linejoin="round"/>
<path d="M10.195 9.87537C7.71542 11.8052 6.12012 14.8176 6.12012 18.203C6.12012 24.0279 10.8421 28.7499 16.667 28.7499C22.4919 28.7499 27.2139 24.0279 27.2139 18.203C27.2139 16.6918 26.8954 15.2552 26.3229 13.9558" stroke="#1E81CE" stroke-width="1.5" stroke-miterlimit="10" stroke-linecap="round" stroke-linejoin="round"/>
</svg>
