<svg width="42" height="44" viewBox="0 0 42 44" fill="none" xmlns="http://www.w3.org/2000/svg">
<g clip-path="url(#clip0_5857_133671)">
<g clip-path="url(#clip1_5857_133671)">
<path d="M40.4417 3.33763C40.1938 2.9443 39.8691 2.60497 39.4871 2.33993C39.1051 2.07489 38.6736 1.88957 38.2184 1.79505C37.7646 1.69508 37.2956 1.68569 36.8382 1.76743C36.3808 1.84918 35.944 2.02044 35.553 2.27139C35.162 2.52235 34.8243 2.84806 34.5595 3.22982C34.2946 3.61159 34.1078 4.0419 34.0096 4.49606L33.6255 6.26157L33.6165 6.27053L32.9855 9.18451L32.892 9.60151L32.7129 5.06035C32.6929 4.58275 32.4845 4.13252 32.1332 3.80831C31.782 3.4841 31.3165 3.31234 30.8389 3.33067L30.0546 3.35654V1.89756C30.0544 1.41875 29.8641 0.95961 29.5256 0.620947C29.1872 0.282283 28.7281 0.0917748 28.2493 0.0912476H0.806312C0.327329 0.0915112 -0.13196 0.281903 -0.470652 0.620595C-0.809344 0.959288 -0.999736 1.41858 -1 1.89756V37.4267C-0.999736 37.9057 -0.809344 38.365 -0.470652 38.7036C-0.13196 39.0423 0.327329 39.2327 0.806312 39.233H3.00474L3.10426 41.8056C3.12446 42.2719 3.32334 42.7124 3.65965 43.0359C3.99597 43.3595 4.44391 43.5411 4.91057 43.5433C4.93351 43.545 4.95655 43.5419 4.97825 43.5343L32.4043 42.4396C32.6413 42.4327 32.8745 42.3778 33.0897 42.2782C33.3049 42.1787 33.4976 42.0365 33.6563 41.8604C33.8199 41.6883 33.9472 41.4851 34.0306 41.2628C34.114 41.0405 34.1519 40.8038 34.142 40.5666L33.9628 36.0931L34.3978 35.5398C34.4066 35.5304 34.4125 35.5186 34.4147 35.5059C34.4308 35.4892 34.4425 35.4687 34.4485 35.4462C34.4757 35.3983 34.4958 35.3466 34.5082 35.2929C34.5172 35.276 34.5251 35.2671 34.5251 35.2591L39.8874 10.6903V10.6813L40.5263 7.76733V7.75439L40.9094 5.98192C41.0141 5.53155 41.0265 5.06465 40.946 4.60936C40.8654 4.15406 40.6935 3.71978 40.4407 3.33266L40.4417 3.33763ZM30.0556 4.79463L30.8996 4.76079H30.9165C31.0144 4.76101 31.1084 4.79939 31.1784 4.86778C31.2485 4.93616 31.2891 5.02916 31.2917 5.12703L31.6898 15.1379C31.2977 16.9183 30.9145 18.6997 30.5224 20.4881L30.0556 22.5831V4.79463ZM0.806312 37.8009C0.707045 37.8001 0.612066 37.7603 0.541872 37.6901C0.471678 37.6199 0.431897 37.525 0.431117 37.4257V1.89756C0.430853 1.84821 0.440377 1.79931 0.459139 1.75367C0.477901 1.70803 0.505528 1.66656 0.540421 1.63167C0.575314 1.59678 0.61678 1.56915 0.662419 1.55039C0.708059 1.53163 0.756967 1.5221 0.806312 1.52236H28.2493C28.2987 1.5221 28.3476 1.53163 28.3932 1.55039C28.4389 1.56915 28.4803 1.59678 28.5152 1.63167C28.5501 1.66656 28.5777 1.70803 28.5965 1.75367C28.6153 1.79931 28.6248 1.84821 28.6245 1.89756V29.1445C28.3349 30.4383 28.0533 31.7321 27.7726 33.0258L27.6194 33.7504C27.6095 33.7895 27.6039 33.8295 27.6024 33.8698V33.9036C27.6024 33.9205 27.6024 33.9295 27.6114 33.9375C27.6114 33.9713 27.6203 34.0141 27.6203 34.0479C27.6293 34.0569 27.6293 34.0569 27.6293 34.0648L28.4981 37.7113L28.4812 37.7282C28.4595 37.7412 28.4369 37.7525 28.4135 37.7621C28.4042 37.771 28.3924 37.7768 28.3797 37.779C28.3421 37.7958 28.3014 37.8046 28.2603 37.8049H0.806312V37.8009ZM32.6113 40.895C32.5435 40.9647 32.4526 41.0072 32.3556 41.0144L4.92948 42.1092C4.88019 42.1106 4.8311 42.1023 4.78506 42.0846C4.73902 42.0669 4.69695 42.0403 4.6613 42.0062C4.62566 41.9721 4.59713 41.9313 4.57739 41.8861C4.55766 41.8409 4.54709 41.7922 4.54632 41.7429L4.4468 39.229H28.2593C28.3537 39.2289 28.448 39.2202 28.5409 39.2031L28.6345 39.1773C28.6977 39.167 28.7602 39.1528 28.8216 39.1345C28.8259 39.1295 28.8319 39.1263 28.8385 39.1255L29.1371 40.3695C29.168 40.5013 29.2356 40.6217 29.3322 40.7166C29.4287 40.8115 29.5501 40.8772 29.6824 40.9059C29.733 40.9158 29.7842 40.9214 29.8357 40.9229C29.8447 40.9229 29.8526 40.9139 29.8616 40.9139C29.8705 40.9139 29.8954 40.9049 29.9123 40.9049C29.9631 40.896 30.0059 40.888 30.0487 40.8791C30.0641 40.8697 30.0815 40.864 30.0994 40.8622C30.1434 40.8458 30.1861 40.8258 30.2268 40.8024C30.2437 40.7935 30.2527 40.7855 30.2696 40.7766C30.319 40.7386 30.3647 40.6959 30.406 40.6492L32.6123 37.8208L32.7228 40.6074C32.7182 40.7129 32.679 40.8139 32.6113 40.895ZM29.2714 34.8371L32.3894 35.5189L32.5596 35.5527L30.1661 38.606L29.5779 36.1349L29.2714 34.8371ZM33.2841 34.249L32.9089 34.1634L29.1599 33.3453L29.1689 33.3284C29.4585 32.0077 29.7402 30.6871 30.0298 29.3754V29.3664L31.9037 20.7778C32.2959 18.9625 32.6999 17.1482 33.0881 15.3419L34.2216 10.1787L38.3368 11.0814L33.2841 34.249ZM38.6443 9.68511L34.5381 8.78245L34.8705 7.26574L38.9857 8.1684L38.6443 9.68511ZM39.5221 5.68932L39.2922 6.7542L35.168 5.86349L35.4069 4.79861C35.5299 4.25857 35.8609 3.78879 36.3279 3.49112C36.795 3.19344 37.3606 3.09187 37.9021 3.20841C38.4436 3.32496 38.9173 3.65023 39.2205 4.11371C39.5238 4.57718 39.6321 5.14151 39.5221 5.68435V5.68932Z" fill="#1483DF"/>
<path d="M32.5549 35.5517L30.1664 38.61L29.5782 36.1389L29.2627 34.8352L32.3807 35.5169L32.5549 35.5517Z" fill="#9AC8FF"/>
<path d="M39.5211 5.68932L39.2912 6.7542L35.167 5.86846L35.4058 4.80358C35.5289 4.26355 35.8598 3.79376 36.3269 3.49609C36.794 3.19842 37.3596 3.09684 37.901 3.21338C38.4425 3.32993 38.9162 3.6552 39.2195 4.11868C39.5227 4.58216 39.6311 5.14649 39.5211 5.68932Z" fill="#9AC8FF"/>
<path d="M27.6 33.8668C27.6014 33.8265 27.6071 33.7865 27.6169 33.7474L27.7702 33.0229C28.0518 31.7291 28.3325 30.4353 28.6221 29.1415V1.89756C28.6223 1.84821 28.6128 1.79931 28.5941 1.75367C28.5753 1.70803 28.5477 1.66656 28.5128 1.63167C28.4779 1.59678 28.4364 1.56915 28.3908 1.55039C28.3451 1.53162 28.2962 1.5221 28.2469 1.52236H0.805866C0.756521 1.5221 0.707613 1.53162 0.661973 1.55039C0.616333 1.56915 0.574867 1.59678 0.539975 1.63167C0.505082 1.66656 0.477455 1.70803 0.458693 1.75367C0.439931 1.79931 0.430406 1.84821 0.430669 1.89756V37.4267C0.430406 37.476 0.439931 37.5249 0.458693 37.5706C0.477455 37.6162 0.505082 37.6577 0.539975 37.6926C0.574867 37.7275 0.616333 37.7551 0.661973 37.7738C0.707613 37.7926 0.756521 37.8021 0.805866 37.8019H28.2489C28.29 37.8016 28.3307 37.7928 28.3683 37.776C28.3773 37.767 28.3942 37.767 28.4021 37.7591C28.4255 37.7495 28.4481 37.7382 28.4698 37.7252L28.4867 37.7083L27.6179 34.0619C27.6179 34.0529 27.6179 34.0529 27.609 34.0449C27.6014 34.0086 27.5984 33.9715 27.6 33.9345C27.594 33.9242 27.5909 33.9125 27.591 33.9006V33.8668H27.6ZM17.5643 7.25678H25.8624C26.0521 7.25678 26.2341 7.33217 26.3683 7.46637C26.5025 7.60056 26.5779 7.78256 26.5779 7.97234C26.5779 8.16212 26.5025 8.34413 26.3683 8.47832C26.2341 8.61251 26.0521 8.6879 25.8624 8.6879H17.5643C17.3745 8.6879 17.1925 8.61251 17.0583 8.47832C16.9241 8.34413 16.8487 8.16212 16.8487 7.97234C16.8487 7.78256 16.9241 7.60056 17.0583 7.46637C17.1925 7.33217 17.3745 7.25678 17.5643 7.25678ZM26.5789 11.3123C26.5779 11.5017 26.5021 11.6831 26.3682 11.8171C26.2342 11.9511 26.0528 12.0268 25.8634 12.0278H17.9016C17.7119 12.0278 17.5299 11.9524 17.3957 11.8183C17.2615 11.6841 17.1861 11.5021 17.1861 11.3123C17.1861 11.1225 17.2615 10.9405 17.3957 10.8063C17.5299 10.6721 17.7119 10.5967 17.9016 10.5967H25.8634C25.9574 10.5966 26.0505 10.615 26.1373 10.6509C26.2242 10.6868 26.3032 10.7395 26.3696 10.806C26.4361 10.8725 26.4888 10.9514 26.5247 11.0383C26.5606 11.1252 26.579 11.2183 26.5789 11.3123ZM8.85714 3.32072C10.1311 3.32072 11.3764 3.69847 12.4356 4.40622C13.4948 5.11397 14.3204 6.11992 14.8079 7.29686C15.2954 8.47381 15.4229 9.76888 15.1744 11.0183C14.9259 12.2678 14.3124 13.4154 13.4116 14.3162C12.5108 15.217 11.3632 15.8305 10.1137 16.079C8.86429 16.3275 7.56921 16.2 6.39227 15.7125C5.21533 15.225 4.20938 14.3994 3.50163 13.3402C2.79388 12.281 2.41612 11.0357 2.41612 9.76174C2.41744 8.05378 3.09644 6.41615 4.30405 5.20835C5.51166 4.00055 7.14919 3.3223 8.85714 3.32072ZM25.9231 32.0665H3.19139C3.00161 32.0665 2.81961 31.9911 2.68542 31.8569C2.55122 31.7227 2.47583 31.5407 2.47583 31.3509C2.47583 31.1611 2.55122 30.9791 2.68542 30.8449C2.81961 30.7107 3.00161 30.6353 3.19139 30.6353H25.9231C26.1128 30.6353 26.2948 30.7107 26.429 30.8449C26.5632 30.9791 26.6386 31.1611 26.6386 31.3509C26.6386 31.5407 26.5632 31.7227 26.429 31.8569C26.2948 31.9911 26.1128 32.0665 25.9231 32.0665ZM25.9231 28.7265H3.19139C3.00161 28.7265 2.81961 28.6511 2.68542 28.5169C2.55122 28.3827 2.47583 28.2007 2.47583 28.011C2.47583 27.8212 2.55122 27.6392 2.68542 27.505C2.81961 27.3708 3.00161 27.2954 3.19139 27.2954H25.9231C26.1128 27.2954 26.2948 27.3708 26.429 27.505C26.5632 27.6392 26.6386 27.8212 26.6386 28.011C26.6386 28.2007 26.5632 28.3827 26.429 28.5169C26.2948 28.6511 26.1128 28.7265 25.9231 28.7265ZM25.9231 25.3866H3.19139C3.00161 25.3866 2.81961 25.3112 2.68542 25.177C2.55122 25.0428 2.47583 24.8608 2.47583 24.671C2.47583 24.4813 2.55122 24.2992 2.68542 24.1651C2.81961 24.0309 3.00161 23.9555 3.19139 23.9555H25.9231C26.1128 23.9555 26.2948 24.0309 26.429 24.1651C26.5632 24.2992 26.6386 24.4813 26.6386 24.671C26.6386 24.8608 26.5632 25.0428 26.429 25.177C26.2948 25.3112 26.1128 25.3866 25.9231 25.3866ZM25.9231 22.0467H3.19139C3.00161 22.0467 2.81961 21.9713 2.68542 21.8371C2.55122 21.7029 2.47583 21.5209 2.47583 21.3311C2.47583 21.1413 2.55122 20.9593 2.68542 20.8251C2.81961 20.6909 3.00161 20.6155 3.19139 20.6155H25.9231C26.1128 20.6155 26.2948 20.6909 26.429 20.8251C26.5632 20.9593 26.6386 21.1413 26.6386 21.3311C26.6386 21.5209 26.5632 21.7029 26.429 21.8371C26.2948 21.9713 26.1128 22.0467 25.9231 22.0467ZM25.9231 18.7067H3.19139C3.00161 18.7067 2.81961 18.6313 2.68542 18.4971C2.55122 18.3629 2.47583 18.1809 2.47583 17.9912C2.47583 17.8014 2.55122 17.6194 2.68542 17.4852C2.81961 17.351 3.00161 17.2756 3.19139 17.2756H25.9231C26.1128 17.2756 26.2948 17.351 26.429 17.4852C26.5632 17.6194 26.6386 17.8014 26.6386 17.9912C26.6386 18.1809 26.5632 18.3629 26.429 18.4971C26.2948 18.6313 26.1128 18.7067 25.9231 18.7067ZM25.9231 15.3668H16.8666C16.6768 15.3668 16.4948 15.2914 16.3606 15.1572C16.2265 15.023 16.1511 14.841 16.1511 14.6512C16.1511 14.4614 16.2265 14.2794 16.3606 14.1452C16.4948 14.0111 16.6768 13.9357 16.8666 13.9357H25.9231C26.1128 13.9357 26.2948 14.0111 26.429 14.1452C26.5632 14.2794 26.6386 14.4614 26.6386 14.6512C26.6386 14.841 26.5632 15.023 26.429 15.1572C26.2948 15.2914 26.1128 15.3668 25.9231 15.3668Z" fill="#9AC8FF"/>
<path d="M8.85802 3.32072C7.5841 3.32072 6.3388 3.69848 5.27958 4.40622C4.22036 5.11397 3.39479 6.11992 2.90729 7.29686C2.41978 8.47381 2.29223 9.76888 2.54076 11.0183C2.78929 12.2678 3.40273 13.4154 4.30353 14.3162C5.20432 15.217 6.352 15.8305 7.60144 16.079C8.85087 16.3275 10.1459 16.2 11.3229 15.7125C12.4998 15.225 13.5058 14.3994 14.2135 13.3402C14.9213 12.281 15.299 11.0357 15.299 9.76174C15.2975 8.05396 14.6183 6.41658 13.4108 5.20899C12.2032 4.00141 10.5658 3.3223 8.85802 3.32072ZM8.85802 14.7716C7.86715 14.7716 6.89854 14.4778 6.07466 13.9273C5.25079 13.3768 4.60866 12.5944 4.22947 11.6789C3.85028 10.7635 3.75107 9.75618 3.94438 8.78435C4.13769 7.81253 4.61483 6.91985 5.31548 6.2192C6.01613 5.51855 6.90881 5.0414 7.88063 4.8481C8.85246 4.65479 9.85978 4.754 10.7752 5.13319C11.6907 5.51238 12.4731 6.15451 13.0236 6.97838C13.5741 7.80226 13.8679 8.77087 13.8679 9.76174C13.8658 11.0898 13.3373 12.3629 12.3982 13.3019C11.4591 14.241 10.1861 14.7695 8.85802 14.7716Z" fill="#1483DF"/>
<path d="M11.6698 13.2211C11.842 13.2214 12.0122 13.184 12.1684 13.1117C12.3246 13.0393 12.4632 12.9337 12.5744 12.8023C12.6855 12.6708 12.7667 12.5166 12.8121 12.3506C12.8575 12.1845 12.866 12.0105 12.8372 11.8407C12.7406 11.2732 12.5242 10.7327 12.2025 10.2554C11.8807 9.77796 11.461 9.37457 10.9712 9.07205C11.1693 8.70617 11.269 8.29509 11.2604 7.8791C11.2518 7.46311 11.1353 7.05648 10.9223 6.69907C10.7093 6.34166 10.407 6.04572 10.0452 5.84028C9.68341 5.63483 9.27442 5.52691 8.85834 5.52711C8.22219 5.53389 7.61422 5.79056 7.16567 6.24172C6.71712 6.69287 6.46398 7.30232 6.46088 7.93851C6.46068 8.33468 6.56028 8.72452 6.75048 9.07205C6.26162 9.37376 5.84245 9.77591 5.52075 10.2519C5.19905 10.7278 4.98216 11.2667 4.88446 11.8328C4.85534 12.0021 4.86311 12.1758 4.90725 12.3419C4.95139 12.508 5.03086 12.6626 5.14022 12.7951C5.25065 12.9298 5.38988 13.038 5.54765 13.1117C5.70542 13.1854 5.87771 13.2228 6.05184 13.2211H11.6698ZM8.85834 6.96718C9.11595 6.96718 9.36302 7.06952 9.54518 7.25168C9.72734 7.43384 9.82968 7.68089 9.82968 7.93851C9.82884 8.09061 9.79248 8.24042 9.72348 8.37598C9.65449 8.51155 9.55478 8.62911 9.4323 8.7193C9.30981 8.8095 9.16795 8.86982 9.01802 8.89547C8.86809 8.92112 8.71424 8.91139 8.56873 8.86704C8.47405 8.84033 8.38479 8.79722 8.305 8.73965C8.17577 8.65108 8.0702 8.53221 7.99751 8.39342C7.92482 8.25463 7.88722 8.10015 7.88801 7.94348C7.88736 7.81559 7.91197 7.68883 7.96042 7.57047C8.00888 7.45211 8.08023 7.34449 8.17039 7.25378C8.26055 7.16307 8.36773 7.09106 8.48578 7.04188C8.60384 6.9927 8.73045 6.96731 8.85834 6.96718ZM7.83626 10.1111C7.92981 10.1539 8.0154 10.1877 8.10895 10.2215C8.14754 10.2367 8.18755 10.2481 8.22838 10.2554C8.28809 10.2723 8.33884 10.2812 8.39856 10.2982L8.56078 10.324C8.60585 10.3313 8.65149 10.3343 8.69712 10.333C8.74788 10.333 8.79664 10.3419 8.85039 10.3419C8.90413 10.3419 8.9499 10.333 8.99568 10.333C9.04146 10.333 9.08924 10.324 9.14099 10.324L9.3032 10.2982C9.36381 10.288 9.42366 10.2737 9.48234 10.2554C9.52343 10.2492 9.56356 10.2378 9.60177 10.2215C9.69467 10.1899 9.78572 10.153 9.87446 10.1111C10.2295 10.2653 10.5463 10.4956 10.8025 10.7857C11.0588 11.0758 11.2482 11.4186 11.3573 11.79H6.35339C6.46256 11.4186 6.65196 11.0758 6.90819 10.7857C7.16442 10.4956 7.48124 10.2653 7.83626 10.1111Z" fill="#1483DF"/>
<path d="M26.5798 7.97235C26.5787 8.1618 26.503 8.3432 26.369 8.47717C26.2351 8.61114 26.0537 8.68686 25.8642 8.68791H17.5661C17.3764 8.68791 17.1944 8.61252 17.0602 8.47832C16.926 8.34413 16.8506 8.16213 16.8506 7.97235C16.8506 7.78257 16.926 7.60057 17.0602 7.46637C17.1944 7.33218 17.3764 7.25679 17.5661 7.25679H25.8642C25.9584 7.25599 26.0518 7.27396 26.139 7.30964C26.2262 7.34531 26.3054 7.39799 26.372 7.4646C26.4386 7.5312 26.4913 7.6104 26.5269 7.69758C26.5626 7.78475 26.5806 7.87816 26.5798 7.97235Z" fill="#1483DF"/>
<path d="M26.5794 11.3123C26.5783 11.5017 26.5026 11.6831 26.3686 11.8171C26.2346 11.9511 26.0532 12.0268 25.8638 12.0278H17.9021C17.7123 12.0278 17.5303 11.9525 17.3961 11.8183C17.2619 11.6841 17.1865 11.5021 17.1865 11.3123C17.1865 11.1225 17.2619 10.9405 17.3961 10.8063C17.5303 10.6721 17.7123 10.5967 17.9021 10.5967H25.8638C25.9578 10.5966 26.0509 10.615 26.1378 10.6509C26.2247 10.6868 26.3036 10.7395 26.3701 10.806C26.4365 10.8725 26.4892 10.9514 26.5251 11.0383C26.5611 11.1252 26.5795 11.2183 26.5794 11.3123Z" fill="#1483DF"/>
<path d="M26.6399 14.6522C26.6389 14.8417 26.5631 15.0231 26.4292 15.157C26.2952 15.291 26.1138 15.3667 25.9243 15.3678H16.8679C16.6781 15.3678 16.4961 15.2924 16.3619 15.1582C16.2277 15.024 16.1523 14.842 16.1523 14.6522C16.1523 14.4624 16.2277 14.2804 16.3619 14.1462C16.4961 14.012 16.6781 13.9367 16.8679 13.9367H25.9243C26.1138 13.9377 26.2952 14.0134 26.4292 14.1474C26.5631 14.2814 26.6389 14.4628 26.6399 14.6522Z" fill="#1483DF"/>
<path d="M26.6394 17.9922C26.6383 18.1816 26.5626 18.363 26.4286 18.497C26.2946 18.6309 26.1132 18.7067 25.9238 18.7077H3.19212C3.00234 18.7077 2.82034 18.6323 2.68614 18.4981C2.55195 18.3639 2.47656 18.1819 2.47656 17.9922C2.47656 17.8024 2.55195 17.6204 2.68614 17.4862C2.82034 17.352 3.00234 17.2766 3.19212 17.2766H25.9238C26.1132 17.2776 26.2946 17.3534 26.4286 17.4873C26.5626 17.6213 26.6383 17.8027 26.6394 17.9922Z" fill="#1483DF"/>
<path d="M26.6394 21.3321C26.6383 21.5215 26.5626 21.7029 26.4286 21.8369C26.2946 21.9709 26.1132 22.0466 25.9238 22.0476H3.19212C3.00234 22.0476 2.82034 21.9723 2.68614 21.8381C2.55195 21.7039 2.47656 21.5219 2.47656 21.3321C2.47656 21.1423 2.55195 20.9603 2.68614 20.8261C2.82034 20.6919 3.00234 20.6165 3.19212 20.6165H25.9238C26.1132 20.6176 26.2946 20.6933 26.4286 20.8273C26.5626 20.9612 26.6383 21.1426 26.6394 21.3321Z" fill="#1483DF"/>
<path d="M26.6394 24.672C26.6383 24.8615 26.5626 25.0429 26.4286 25.1769C26.2946 25.3108 26.1132 25.3865 25.9238 25.3876H3.19212C3.09815 25.3876 3.00511 25.3691 2.91829 25.3331C2.83147 25.2972 2.75259 25.2445 2.68614 25.178C2.6197 25.1116 2.56699 25.0327 2.53103 24.9459C2.49507 24.859 2.47656 24.766 2.47656 24.672C2.47656 24.5781 2.49507 24.485 2.53103 24.3982C2.56699 24.3114 2.6197 24.2325 2.68614 24.166C2.75259 24.0996 2.83147 24.0469 2.91829 24.0109C3.00511 23.975 3.09815 23.9565 3.19212 23.9565H25.9238C26.1132 23.9575 26.2946 24.0332 26.4286 24.1672C26.5626 24.3012 26.6383 24.4826 26.6394 24.672Z" fill="#1483DF"/>
<path d="M26.6394 28.012C26.6383 28.2014 26.5626 28.3828 26.4286 28.5168C26.2946 28.6507 26.1132 28.7265 25.9238 28.7275H3.19212C3.00234 28.7275 2.82034 28.6521 2.68614 28.5179C2.55195 28.3837 2.47656 28.2018 2.47656 28.012C2.47656 27.8222 2.55195 27.6402 2.68614 27.506C2.82034 27.3718 3.00234 27.2964 3.19212 27.2964H25.9238C26.1132 27.2974 26.2946 27.3732 26.4286 27.5071C26.5626 27.6411 26.6383 27.8225 26.6394 28.012Z" fill="#1483DF"/>
<path d="M26.6394 31.3519C26.6383 31.5413 26.5626 31.7228 26.4286 31.8567C26.2946 31.9907 26.1132 32.0664 25.9238 32.0674H3.19212C3.00234 32.0674 2.82034 31.9921 2.68614 31.8579C2.55195 31.7237 2.47656 31.5417 2.47656 31.3519C2.47656 31.1621 2.55195 30.9801 2.68614 30.8459C2.82034 30.7117 3.00234 30.6363 3.19212 30.6363H25.9238C26.1132 30.6374 26.2946 30.7131 26.4286 30.8471C26.5626 30.9811 26.6383 31.1624 26.6394 31.3519Z" fill="#1483DF"/>
</g>
</g>
<defs>
<clipPath id="clip0_5857_133671">
<rect width="42" height="43.452" fill="white" transform="translate(0 0.0912476)"/>
</clipPath>
<clipPath id="clip1_5857_133671">
<rect width="42" height="43.452" fill="white" transform="translate(0 0.0912476)"/>
</clipPath>
</defs>
</svg>
