<svg width="46" height="46" viewBox="0 0 46 46" fill="none" xmlns="http://www.w3.org/2000/svg">
<g clip-path="url(#clip0_5857_133736)">
<path fill-rule="evenodd" clip-rule="evenodd" d="M45.0112 7.56153C41.5649 -2.28564 26.373 0.112121 26.9042 6.90489C26.9167 7.0616 26.9391 7.22077 26.9691 7.38249C27.585 10.7827 30.5401 13.4539 36.3979 9.16088C38.4702 7.64116 40.7819 5.72345 45.0112 7.56153Z" fill="#9AC8FF"/>
<path fill-rule="evenodd" clip-rule="evenodd" d="M13.3428 26.7311C13.3428 33.3075 18.6894 38.6403 25.2828 38.6403C31.8762 38.6403 37.2228 33.3076 37.2228 26.7311C37.2228 20.1548 31.8762 14.8245 25.2828 14.8245C18.6893 14.8244 13.3428 20.1547 13.3428 26.7311Z" fill="white"/>
<path fill-rule="evenodd" clip-rule="evenodd" d="M26.8193 24.9471C26.8193 23.674 25.7876 22.6423 24.5146 22.6423H22.2098C21.7857 22.6423 21.4416 22.2982 21.4416 21.8741C21.4416 21.45 21.7857 21.1058 22.2098 21.1058H24.5146C26.6357 21.1058 28.3558 22.8258 28.3558 24.9471C28.3558 27.0684 26.6357 28.7884 24.5146 28.7884H24.0644L28.899 33.6227C29.1986 33.923 29.1986 34.4094 28.899 34.7097C28.5994 35.0091 28.1123 35.0091 27.8127 34.7097L21.6666 28.5636C21.4469 28.3432 21.3809 28.0131 21.4999 27.726C21.619 27.4389 21.8994 27.2519 22.2098 27.2519H24.5146C25.7876 27.2519 26.8193 26.2202 26.8193 24.9471Z" fill="#1483DF"/>
<path fill-rule="evenodd" clip-rule="evenodd" d="M20.6735 22.6413H29.8926C30.3166 22.6413 30.6608 22.2971 30.6608 21.873C30.6608 21.4489 30.3166 21.1048 29.8926 21.1048H20.6735C20.2495 21.1048 19.9053 21.4489 19.9053 21.873C19.9053 22.2971 20.2495 22.6413 20.6735 22.6413Z" fill="#1483DF"/>
<path fill-rule="evenodd" clip-rule="evenodd" d="M20.6735 25.7143H29.8926C30.3166 25.7143 30.6608 25.3701 30.6608 24.946C30.6608 24.5219 30.3166 24.1778 29.8926 24.1778H20.6735C20.2495 24.1778 19.9053 24.5219 19.9053 24.946C19.9053 25.3701 20.2495 25.7143 20.6735 25.7143Z" fill="#1483DF"/>
<path fill-rule="evenodd" clip-rule="evenodd" d="M24.4454 14.8518C30.0239 15.8517 34.2583 20.7194 34.2583 26.572C34.2583 32.8673 29.3606 38.0235 23.1562 38.4513C23.847 38.5756 24.5578 38.6403 25.2834 38.6403C31.8768 38.6403 37.2234 33.3076 37.2234 26.7311C37.2234 20.1548 31.8768 14.8245 25.2834 14.8245C25.0015 14.8244 24.7223 14.8319 24.4454 14.8518Z" fill="#9AC8FF"/>
<path d="M18.0635 17.2467C20.0665 15.7271 22.5697 14.8244 25.2829 14.8244C31.8765 14.8244 37.2229 20.155 37.2229 26.7311C37.2229 29.4952 36.2781 32.0406 34.6934 34.0612" stroke="#1483DF" stroke-width="1.5" stroke-miterlimit="10" stroke-linecap="round" stroke-linejoin="round"/>
<path d="M13.4614 28.4124C13.3832 27.863 13.3428 27.3014 13.3428 26.731C13.3428 23.9132 14.3254 21.3213 15.9689 19.2814" stroke="#1483DF" stroke-width="1.5" stroke-miterlimit="10" stroke-linecap="round" stroke-linejoin="round"/>
<path fill-rule="evenodd" clip-rule="evenodd" d="M9.68662 40.3391C12.6542 40.3391 13.1379 40.65 16.8187 42.8811C18.7389 44.0451 20.1179 44.6023 21.4721 44.6546H21.891C23.0481 44.6098 24.2252 44.2044 25.7438 43.498L38.7263 37.4588C41.8684 35.9988 40.806 32.1832 37.5841 32.9742C37.3946 33.0215 37.2001 33.0812 36.9981 33.1607L26.1129 37.4091C26.7712 35.8495 26.1752 33.111 24.1154 31.7629L22.1204 30.4546C19.8187 28.9472 16.7913 27.7882 13.8761 28.3229C13.4198 28.4075 12.9634 28.5343 12.5145 28.706L9.68662 29.7954L8.2627 35.1754L9.68662 40.3391Z" fill="#9AC8FF"/>
<path fill-rule="evenodd" clip-rule="evenodd" d="M9.68725 40.3391C12.6548 40.3391 13.1386 40.65 16.8194 42.8811C18.7395 44.0451 20.1185 44.6023 21.4727 44.6546H21.8917C23.0488 44.6098 24.2258 44.2044 25.7445 43.498L38.7269 37.4588C40.6944 36.5435 41.0136 34.7029 40.1833 33.6507C39.8765 34.0463 39.4327 34.4069 38.8416 34.6805L37.5847 35.265L36.1409 35.9365L25.8592 40.7196C22.3779 42.3388 20.6921 42.3786 16.9341 40.1028C13.5102 38.0259 12.2384 37.613 9.68725 37.5657L8.97656 37.7572L9.68725 40.3391Z" fill="#9AC8FF"/>
<path fill-rule="evenodd" clip-rule="evenodd" d="M16.6052 34.479L22.0614 38.0234C22.7896 38.496 23.5202 38.7422 24.1711 38.7322C24.8344 38.7247 25.4155 38.4536 25.8369 37.8965C25.9442 37.7522 26.0364 37.5881 26.1137 37.4089C26.2858 37.001 26.3705 36.511 26.368 35.9862C25.9865 36.3195 25.5177 36.4837 25.0015 36.4862C24.3532 36.4936 23.6274 36.2474 22.9018 35.7773L17.8072 32.417C16.4107 31.4321 14.8246 33.2528 16.6052 34.479Z" fill="#9AC8FF"/>
<path d="M26.113 37.409C26.0357 37.5882 25.9435 37.7523 25.8363 37.8966C25.0009 39.0034 23.5296 38.976 22.0607 38.0234L16.6045 34.479" stroke="#1483DF" stroke-width="1.5" stroke-miterlimit="10" stroke-linecap="round" stroke-linejoin="round"/>
<path fill-rule="evenodd" clip-rule="evenodd" d="M1.65723 42.4956H8.56241C9.18081 42.4956 9.68707 41.9931 9.68707 41.3763V40.3391V29.7955V28.4921C9.68707 27.8753 9.18081 27.3728 8.56241 27.3728H1.65723V42.4956Z" fill="#9AC8FF"/>
<path fill-rule="evenodd" clip-rule="evenodd" d="M1.65723 42.4956H8.56235C9.18075 42.4956 9.687 41.9931 9.687 41.3763V40.3391V37.5658C9.687 36.9514 9.18075 38.6875 8.56235 38.6875H1.65723V42.4956Z" fill="#9AC8FF"/>
<path d="M1.65723 42.4956H8.56241C9.18081 42.4956 9.68707 41.9931 9.68707 41.3763V28.4921C9.68707 27.8753 9.18081 27.3728 8.56241 27.3728H1.65723" stroke="#1483DF" stroke-width="1.5" stroke-miterlimit="10" stroke-linecap="round" stroke-linejoin="round"/>
<path d="M32.4056 40.399L25.7444 43.4981C22.263 45.117 20.5772 45.1566 16.8199 42.8811C13.139 40.6504 12.6547 40.3393 9.6875 40.3393V29.7958L12.515 28.706C12.8279 28.5856 13.1443 28.488 13.4616 28.4124C16.5017 27.6785 19.7097 28.8739 22.1215 30.455L24.1157 31.7628C26.1759 33.1111 26.7718 35.8498 26.1135 37.409L34.6935 34.0612L36.9988 33.1612C40.6674 31.7303 42.0508 35.9113 38.7268 37.4591L35.0538 39.1677" stroke="#1483DF" stroke-width="1.5" stroke-miterlimit="10" stroke-linecap="round" stroke-linejoin="round"/>
<path d="M25.2832 14.8244V10.3672" stroke="#1483DF" stroke-width="1.5" stroke-miterlimit="10" stroke-linecap="round" stroke-linejoin="round"/>
<path d="M25.2832 10.3672C26.9615 8.0863 28.4702 6.17855 33.7544 5.32293" stroke="#1483DF" stroke-width="1.5" stroke-miterlimit="10" stroke-linecap="round" stroke-linejoin="round"/>
<path fill-rule="evenodd" clip-rule="evenodd" d="M35.612 7.26059C31.7342 9.88713 29.0335 9.90708 27.3652 8.75298C28.4699 11.3945 31.3602 12.8521 36.3976 9.16088C38.4699 7.64116 40.7816 5.72345 45.0109 7.56153C44.7142 6.71583 44.3327 5.96217 43.8812 5.29314C39.9611 4.12656 37.6768 5.86276 35.612 7.26059Z" fill="#9AC8FF"/>
<path d="M45.0112 7.56152C41.4851 -2.51451 25.6623 0.231477 26.9691 7.38249C27.585 10.7827 30.5401 13.4539 36.3979 9.16088C38.4702 7.64115 40.7819 5.72345 45.0112 7.56152Z" stroke="#1483DF" stroke-width="1.5" stroke-miterlimit="10" stroke-linecap="round" stroke-linejoin="round"/>
<path fill-rule="evenodd" clip-rule="evenodd" d="M5.55469 7.56153C8.99853 -2.28564 24.1904 0.112121 23.6592 6.90489C23.6468 7.0616 23.6268 7.22077 23.5969 7.38249C22.9784 10.7827 20.0259 13.4539 14.1681 9.16088C12.0957 7.64116 9.78156 5.72345 5.55469 7.56153Z" fill="#9AC8FF"/>
<path d="M25.2827 10.3672C23.6044 8.0863 22.0957 6.17855 16.8115 5.32293" stroke="#1483DF" stroke-width="1.5" stroke-miterlimit="10" stroke-linecap="round" stroke-linejoin="round"/>
<path fill-rule="evenodd" clip-rule="evenodd" d="M14.9511 7.26059C18.8289 9.88713 21.5321 9.90708 23.1979 8.75298C22.0957 11.3945 19.2054 12.8521 14.168 9.16088C12.0957 7.64116 9.78156 5.72345 5.55469 7.56153C5.84895 6.71583 6.23048 5.96217 6.68189 5.29314C10.6021 4.12656 12.8863 5.86276 14.9511 7.26059Z" fill="#9AC8FF"/>
<path d="M5.55469 7.56152C9.07834 -2.51451 24.9011 0.231477 23.5968 7.38249C22.9783 10.7827 20.0258 13.4539 14.168 9.16088C12.0957 7.64115 9.78156 5.72345 5.55469 7.56152Z" stroke="#1483DF" stroke-width="1.5" stroke-miterlimit="10" stroke-linecap="round" stroke-linejoin="round"/>
</g>
<defs>
<clipPath id="clip0_5857_133736">
<rect width="45" height="45" fill="white" transform="translate(0.833984 0.317261)"/>
</clipPath>
</defs>
</svg>
