<svg width="14" height="10" viewBox="0 0 14 10" fill="none" xmlns="http://www.w3.org/2000/svg">
<path d="M13.6925 7.78671L7.44254 0.286707C7.38449 0.216974 7.31556 0.161654 7.23969 0.123912C7.16381 0.0861683 7.08248 0.0667429 7.00035 0.0667429C6.91821 0.0667429 6.83688 0.0861683 6.76101 0.123912C6.68514 0.161654 6.61621 0.216974 6.55816 0.286707L0.30816 7.78671C0.190885 7.92744 0.125 8.11831 0.125 8.31733C0.125 8.51635 0.190885 8.70723 0.30816 8.84796C0.425435 8.98869 0.584495 9.06775 0.750347 9.06775C0.9162 9.06775 1.07526 8.98869 1.19253 8.84796L7.00035 1.87764L12.8082 8.84796C12.8662 8.91764 12.9352 8.97292 13.011 9.01063C13.0869 9.04834 13.1682 9.06775 13.2503 9.06775C13.3325 9.06775 13.4138 9.04834 13.4897 9.01063C13.5655 8.97292 13.6345 8.91764 13.6925 8.84796C13.7506 8.77827 13.7967 8.69555 13.8281 8.6045C13.8595 8.51346 13.8757 8.41588 13.8757 8.31733C13.8757 8.21879 13.8595 8.1212 13.8281 8.03016C13.7967 7.93911 13.7506 7.85639 13.6925 7.78671Z" fill="black"/>
</svg>
