<svg width="7" height="12" viewBox="0 0 7 12" fill="none" xmlns="http://www.w3.org/2000/svg">
<path d="M0.251371 1.72639C0.0903355 1.56375 0 1.34413 0 1.11525C0 0.886379 0.0903355 0.666754 0.251371 0.504115C0.330449 0.423818 0.424707 0.360049 0.528661 0.316524C0.632615 0.272998 0.744187 0.250583 0.856886 0.250583C0.969584 0.250583 1.08116 0.272998 1.18511 0.316524C1.28906 0.360049 1.38332 0.423818 1.4624 0.504115L6.24903 5.38822C6.40984 5.55123 6.5 5.77101 6.5 5.99999C6.5 6.22897 6.40984 6.44874 6.24903 6.61175L1.4624 11.4959C1.38332 11.5762 1.28906 11.6399 1.18511 11.6834C1.08116 11.727 0.969584 11.7494 0.856886 11.7494C0.744187 11.7494 0.632615 11.727 0.528661 11.6834C0.424707 11.6399 0.330449 11.5762 0.251371 11.4959C0.0903355 11.3332 0 11.1136 0 10.8847C0 10.6558 0.0903355 10.4362 0.251371 10.2736L4.1769 5.99811L0.251371 1.72639Z" fill="#97144D"/>
</svg>
