<svg width="21" height="20" viewBox="0 0 21 20" fill="none" xmlns="http://www.w3.org/2000/svg">
<path d="M15.0603 11.985C14.8128 11.8608 13.5953 11.2625 13.3687 11.1792C13.1412 11.0967 12.9762 11.0558 12.8103 11.3042C12.6462 11.5517 12.1712 12.1092 12.027 12.2742C11.8828 12.44 11.7378 12.46 11.4903 12.3367C11.2428 12.2117 10.4445 11.9508 9.49867 11.1075C8.76284 10.4509 8.26534 9.64002 8.12117 9.39169C7.97701 9.14419 8.10617 9.01002 8.22951 8.88669C8.34117 8.77585 8.47784 8.59752 8.60117 8.45335C8.72534 8.30835 8.76617 8.20502 8.8495 8.03919C8.932 7.87419 8.89117 7.73002 8.82867 7.60585C8.76617 7.48169 8.27117 6.26252 8.06534 5.76669C7.86367 5.28419 7.65951 5.35003 7.50784 5.34169C7.34959 5.33539 7.19122 5.33261 7.03284 5.33336C6.86784 5.33336 6.59951 5.39503 6.37284 5.64336C6.14618 5.89086 5.50618 6.49002 5.50618 7.70919C5.50618 8.92752 6.39367 10.105 6.51701 10.2709C6.64117 10.4359 8.26367 12.9375 10.7478 14.01C11.3387 14.265 11.7995 14.4175 12.1595 14.5308C12.7528 14.72 13.2928 14.6933 13.7187 14.6292C14.1945 14.5583 15.1837 14.03 15.3903 13.4517C15.597 12.8733 15.597 12.3775 15.5345 12.2742C15.4728 12.1708 15.3087 12.1092 15.0603 11.985ZM10.542 18.1542H10.5387C9.06348 18.1543 7.61541 17.7577 6.34618 17.0058L6.04534 16.8275L2.92785 17.6458L3.75951 14.6058L3.56368 14.2942C2.73905 12.9811 2.3028 11.4614 2.30535 9.91085C2.30618 5.36919 6.00201 1.6742 10.5453 1.6742C12.7453 1.6742 14.8137 2.53253 16.3687 4.08919C17.1359 4.85304 17.744 5.76146 18.1578 6.76189C18.5716 7.76232 18.7829 8.83489 18.7795 9.91752C18.777 14.4592 15.082 18.1542 10.542 18.1542ZM17.5528 2.9067C16.6347 1.98247 15.5422 1.24965 14.3387 0.7507C13.1353 0.251754 11.8448 -0.00339687 10.542 3.41479e-05C5.07951 3.41479e-05 0.633685 4.44586 0.631185 9.91002C0.631185 11.6567 1.08702 13.3617 1.95452 14.8642L0.547852 20L5.80201 18.6217C7.255 19.4133 8.8832 19.8281 10.5378 19.8283H10.542C16.0037 19.8283 20.4503 15.3825 20.4528 9.91752C20.4568 8.61525 20.2026 7.32511 19.7048 6.12172C19.2071 4.91833 18.4756 3.82559 17.5528 2.9067Z" fill="white"/>
</svg>
